<svg width="48" height="48" viewBox="0 0 48 48" fill="none" xmlns="http://www.w3.org/2000/svg">
<path d="M42 30.8999V37.4999C42 39.1499 40.65 40.4999 39 40.4999H9C7.35 40.4999 6 39.1499 6 37.4999V30.8999" stroke="#406F3D" stroke-width="2" stroke-miterlimit="10" stroke-linecap="round" stroke-linejoin="round"/>
<path d="M24 36C22.35 36 21 34.65 21 33V28.5H27V33C27 34.65 25.65 36 24 36Z" stroke="#406F3D" stroke-width="2" stroke-miterlimit="10" stroke-linecap="round" stroke-linejoin="round"/>
<path d="M21 33H10.5C7.2 33 4.5 30.3 4.5 27V15C4.5 13.35 5.85 12 7.5 12H40.5C42.15 12 43.5 13.35 43.5 15V27C43.5 30.3 40.8 33 37.5 33H27" stroke="#406F3D" stroke-width="2" stroke-miterlimit="10" stroke-linecap="round" stroke-linejoin="round"/>
<path d="M30 12H18V9C18 7.35 19.35 6 21 6H27C28.65 6 30 7.35 30 9V12Z" stroke="#406F3D" stroke-width="2" stroke-miterlimit="10" stroke-linecap="round" stroke-linejoin="round"/>
<path d="M10.5 42V40.5" stroke="#406F3D" stroke-width="2" stroke-miterlimit="10" stroke-linecap="round" stroke-linejoin="round"/>
<path d="M37.5 42V40.5" stroke="#406F3D" stroke-width="2" stroke-miterlimit="10" stroke-linecap="round" stroke-linejoin="round"/>
</svg>
