<svg width="48" height="48" viewBox="0 0 48 48" fill="none" xmlns="http://www.w3.org/2000/svg">
<path d="M4.5 37.5L8.4 31.2C10.65 27.75 14.4 25.5 18.6 25.5H28.5C28.5 28.8 25.8 31.5 22.5 31.5H19.5" stroke="#406F3D" stroke-width="2" stroke-miterlimit="10" stroke-linecap="round" stroke-linejoin="round"/>
<path d="M22.5 31.5H34.5L36.3 29.1C37.95 26.85 40.65 25.5 43.5 25.5L39.45 32.7C37.35 36.6 33.15 39 28.8 39C21.75 39 14.85 41.1 9 45" stroke="#406F3D" stroke-width="2" stroke-miterlimit="10" stroke-linecap="round" stroke-linejoin="round"/>
<path d="M40.5 3H7.5V21H40.5V3Z" stroke="#406F3D" stroke-width="2" stroke-miterlimit="10" stroke-linecap="round" stroke-linejoin="round"/>
<path d="M40.5 9C37.2 9 34.5 6.3 34.5 3" stroke="#406F3D" stroke-width="2" stroke-miterlimit="10" stroke-linecap="round" stroke-linejoin="round"/>
<path d="M7.5 15C10.8 15 13.5 17.7 13.5 21" stroke="#406F3D" stroke-width="2" stroke-miterlimit="10" stroke-linecap="round" stroke-linejoin="round"/>
<path d="M24 16.5C26.4853 16.5 28.5 14.4853 28.5 12C28.5 9.51472 26.4853 7.5 24 7.5C21.5147 7.5 19.5 9.51472 19.5 12C19.5 14.4853 21.5147 16.5 24 16.5Z" stroke="#406F3D" stroke-width="2" stroke-miterlimit="10" stroke-linecap="round" stroke-linejoin="round"/>
<path d="M13.5 3C13.5 6.3 10.8 9 7.5 9" stroke="#406F3D" stroke-width="2" stroke-miterlimit="10" stroke-linecap="round" stroke-linejoin="round"/>
<path d="M40.5 15C37.2 15 34.5 17.7 34.5 21" stroke="#406F3D" stroke-width="2" stroke-miterlimit="10" stroke-linecap="round" stroke-linejoin="round"/>
</svg>
