<svg width="58" height="58" viewBox="0 0 58 58" fill="none" xmlns="http://www.w3.org/2000/svg">
<path d="M50.311 0H7.68897C5.05167 0 2.90601 2.14566 2.90601 4.78285V53.217C2.90601 55.8543 5.05167 57.9999 7.68885 57.9999H50.3109C52.9482 57.9999 55.0938 55.8542 55.0938 53.217V4.78285C55.094 2.14566 52.9483 0 50.311 0ZM53.2776 53.2171C53.2776 54.8529 51.9468 56.1838 50.311 56.1838H7.68897C6.05319 56.1838 4.72236 54.8529 4.72236 53.2171V4.78285C4.72236 3.14707 6.05319 1.81624 7.68897 1.81624H50.311C51.9468 1.81624 53.2776 3.14707 53.2776 4.78285V53.2171Z" fill="#406F3D"/>
<path d="M47.4049 5.81201H10.5949C9.55992 5.81201 8.71802 6.65392 8.71802 7.68886V19.3131C8.71802 20.348 9.55992 21.1899 10.5949 21.1899H47.4049C48.4399 21.1899 49.2818 20.348 49.2818 19.3131V7.68886C49.2818 6.65392 48.4399 5.81201 47.4049 5.81201ZM47.4654 19.3131C47.4654 19.3465 47.4383 19.3736 47.4049 19.3736H10.5949C10.5614 19.3736 10.5344 19.3465 10.5344 19.3131V7.68886C10.5344 7.65544 10.5614 7.62836 10.5949 7.62836H47.4049C47.4383 7.62836 47.4654 7.65544 47.4654 7.68886V19.3131Z" fill="#406F3D"/>
<path d="M15.4383 25.186H10.5949C9.55992 25.186 8.71802 26.0279 8.71802 27.0629V30.9377C8.71802 31.9726 9.55992 32.8145 10.5949 32.8145H15.4383C16.4733 32.8145 17.3152 31.9726 17.3152 30.9377V27.0629C17.3152 26.0279 16.4733 25.186 15.4383 25.186ZM15.4988 30.9375C15.4988 30.971 15.4717 30.998 15.4383 30.998H10.5949C10.5614 30.998 10.5344 30.971 10.5344 30.9375V27.0628C10.5344 27.0293 10.5614 27.0023 10.5949 27.0023H15.4383C15.4717 27.0023 15.4988 27.0293 15.4988 27.0628V30.9375Z" fill="#406F3D"/>
<path d="M26.0941 25.186H21.2506C20.2157 25.186 19.3738 26.0279 19.3738 27.0629V30.9377C19.3738 31.9726 20.2157 32.8145 21.2506 32.8145H26.0941C27.129 32.8145 27.9709 31.9726 27.9709 30.9377V27.0629C27.9708 26.0279 27.1289 25.186 26.0941 25.186ZM26.1546 30.9375C26.1546 30.971 26.1275 30.998 26.0941 30.998H21.2506C21.2172 30.998 21.1901 30.971 21.1901 30.9375V27.0628C21.1901 27.0293 21.2172 27.0023 21.2506 27.0023H26.0941C26.1275 27.0023 26.1546 27.0293 26.1546 27.0628V30.9375Z" fill="#406F3D"/>
<path d="M36.7494 25.186H31.9059C30.871 25.186 30.0291 26.0279 30.0291 27.0629V30.9377C30.0291 31.9726 30.871 32.8145 31.9059 32.8145H36.7494C37.7843 32.8145 38.6262 31.9726 38.6262 30.9377V27.0629C38.6262 26.0279 37.7843 25.186 36.7494 25.186ZM36.81 30.9375C36.81 30.971 36.7829 30.998 36.7495 30.998H31.906C31.8726 30.998 31.8455 30.971 31.8455 30.9375V27.0628C31.8455 27.0293 31.8726 27.0023 31.906 27.0023H36.7495C36.7829 27.0023 36.81 27.0293 36.81 27.0628V30.9375Z" fill="#406F3D"/>
<path d="M47.4051 25.186H42.5617C41.5267 25.186 40.6848 26.0279 40.6848 27.0629V30.9377C40.6848 31.9726 41.5267 32.8145 42.5617 32.8145H47.4051C48.44 32.8145 49.282 31.9726 49.282 30.9377V27.0629C49.282 26.0279 48.44 25.186 47.4051 25.186ZM47.4656 30.9375C47.4656 30.971 47.4385 30.998 47.4051 30.998H42.5617C42.5282 30.998 42.5012 30.971 42.5012 30.9375V27.0628C42.5012 27.0293 42.5282 27.0023 42.5617 27.0023H47.4051C47.4385 27.0023 47.4656 27.0293 47.4656 27.0628V30.9375Z" fill="#406F3D"/>
<path d="M15.4383 34.8726H10.5949C9.55992 34.8726 8.71802 35.7145 8.71802 36.7494V40.6242C8.71802 41.6591 9.55992 42.501 10.5949 42.501H15.4383C16.4733 42.501 17.3152 41.6591 17.3152 40.6242V36.7494C17.3152 35.7145 16.4733 34.8726 15.4383 34.8726ZM15.4988 40.6242C15.4988 40.6576 15.4717 40.6847 15.4383 40.6847H10.5949C10.5614 40.6847 10.5344 40.6576 10.5344 40.6242V36.7494C10.5344 36.716 10.5614 36.6889 10.5949 36.6889H15.4383C15.4717 36.6889 15.4988 36.716 15.4988 36.7494V40.6242Z" fill="#406F3D"/>
<path d="M26.0941 34.8726H21.2506C20.2157 34.8726 19.3738 35.7145 19.3738 36.7494V40.6242C19.3738 41.6591 20.2157 42.501 21.2506 42.501H26.0941C27.129 42.501 27.9709 41.6591 27.9709 40.6242V36.7494C27.9708 35.7145 27.1289 34.8726 26.0941 34.8726ZM26.1546 40.6242C26.1546 40.6576 26.1275 40.6847 26.0941 40.6847H21.2506C21.2172 40.6847 21.1901 40.6576 21.1901 40.6242V36.7494C21.1901 36.716 21.2172 36.6889 21.2506 36.6889H26.0941C26.1275 36.6889 26.1546 36.716 26.1546 36.7494V40.6242Z" fill="#406F3D"/>
<path d="M36.7494 34.8726H31.9059C30.871 34.8726 30.0291 35.7145 30.0291 36.7494V40.6242C30.0291 41.6591 30.871 42.501 31.9059 42.501H36.7494C37.7843 42.501 38.6262 41.6591 38.6262 40.6242V36.7494C38.6262 35.7145 37.7843 34.8726 36.7494 34.8726ZM36.81 40.6242C36.81 40.6576 36.7829 40.6847 36.7495 40.6847H31.906C31.8726 40.6847 31.8455 40.6576 31.8455 40.6242V36.7494C31.8455 36.716 31.8726 36.6889 31.906 36.6889H36.7495C36.7829 36.6889 36.81 36.716 36.81 36.7494V40.6242Z" fill="#406F3D"/>
<path d="M15.4383 44.5596H10.5949C9.55992 44.5596 8.71802 45.4015 8.71802 46.4364V50.3112C8.71802 51.3461 9.55992 52.188 10.5949 52.188H15.4383C16.4733 52.188 17.3152 51.3461 17.3152 50.3112V46.4364C17.3152 45.4015 16.4733 44.5596 15.4383 44.5596ZM15.4988 50.3111C15.4988 50.3445 15.4717 50.3716 15.4383 50.3716H10.5949C10.5614 50.3716 10.5344 50.3445 10.5344 50.3111V46.4363C10.5344 46.4029 10.5614 46.3758 10.5949 46.3758H15.4383C15.4717 46.3758 15.4988 46.4029 15.4988 46.4363V50.3111Z" fill="#406F3D"/>
<path d="M26.0941 44.5596H21.2506C20.2157 44.5596 19.3738 45.4015 19.3738 46.4364V50.3112C19.3738 51.3461 20.2157 52.188 21.2506 52.188H26.0941C27.129 52.188 27.9709 51.3461 27.9709 50.3112V46.4364C27.9708 45.4015 27.1289 44.5596 26.0941 44.5596ZM26.1546 50.3111C26.1546 50.3445 26.1275 50.3716 26.0941 50.3716H21.2506C21.2172 50.3716 21.1901 50.3445 21.1901 50.3111V46.4363C21.1901 46.4029 21.2172 46.3758 21.2506 46.3758H26.0941C26.1275 46.3758 26.1546 46.4029 26.1546 46.4363V50.3111Z" fill="#406F3D"/>
<path d="M36.7494 44.5596H31.9059C30.871 44.5596 30.0291 45.4015 30.0291 46.4364V50.3112C30.0291 51.3461 30.871 52.188 31.9059 52.188H36.7494C37.7843 52.188 38.6262 51.3461 38.6262 50.3112V46.4364C38.6262 45.4015 37.7843 44.5596 36.7494 44.5596ZM36.81 50.3111C36.81 50.3445 36.7829 50.3716 36.7495 50.3716H31.906C31.8726 50.3716 31.8455 50.3445 31.8455 50.3111V46.4363C31.8455 46.4029 31.8726 46.3758 31.906 46.3758H36.7495C36.7829 46.3758 36.81 46.4029 36.81 46.4363V50.3111Z" fill="#406F3D"/>
<path d="M47.4051 34.8726H42.5617C41.5267 34.8726 40.6848 35.7145 40.6848 36.7494V50.311C40.6848 51.3459 41.5267 52.1878 42.5617 52.1878H47.4051C48.44 52.1878 49.282 51.3459 49.282 50.311V36.7494C49.282 35.7145 48.44 34.8726 47.4051 34.8726ZM47.4656 50.311C47.4656 50.3444 47.4385 50.3715 47.4051 50.3715H42.5617C42.5282 50.3715 42.5012 50.3444 42.5012 50.311V36.7494C42.5012 36.716 42.5282 36.6889 42.5617 36.6889H47.4051C47.4385 36.6889 47.4656 36.716 47.4656 36.7494V50.311Z" fill="#406F3D"/>
<path d="M34.812 12.5928H30.9372C30.4357 12.5928 30.0291 12.9993 30.0291 13.5009C30.0291 14.0026 30.4356 14.4091 30.9372 14.4091H34.812C35.3135 14.4091 35.7202 14.0026 35.7202 13.5009C35.7202 12.9993 35.3135 12.5928 34.812 12.5928Z" fill="#406F3D"/>
<path d="M42.5615 12.5928H38.6867C38.1852 12.5928 37.7786 12.9993 37.7786 13.5009C37.7786 14.0026 38.1851 14.4091 38.6867 14.4091H42.5615C43.063 14.4091 43.4697 14.0026 43.4697 13.5009C43.4697 12.9993 43.063 12.5928 42.5615 12.5928Z" fill="#406F3D"/>
<path d="M19.3132 12.5928H15.4384C14.937 12.5928 14.5303 12.9993 14.5303 13.5009C14.5303 14.0026 14.9368 14.4091 15.4384 14.4091H19.3132C19.8147 14.4091 20.2214 14.0026 20.2214 13.5009C20.2214 12.9993 19.8147 12.5928 19.3132 12.5928Z" fill="#406F3D"/>
<path d="M27.0627 12.5928H23.188C22.6865 12.5928 22.2798 12.9993 22.2798 13.5009C22.2798 14.0026 22.6864 14.4091 23.188 14.4091H27.0627C27.5642 14.4091 27.9709 14.0026 27.9709 13.5009C27.9709 12.9993 27.5642 12.5928 27.0627 12.5928Z" fill="#406F3D"/>
</svg>
