<svg width="20" height="20" viewBox="0 0 20 20" fill="none" xmlns="http://www.w3.org/2000/svg">
<path d="M2.35722 0C1.04887 0 0 1.04814 0 2.34657V17.6534C0 18.9519 1.04887 20 2.35722 20H17.6355C18.9439 20 20 18.9519 20 17.6534V2.34657C20 1.04814 18.9439 0 17.6355 0H2.35722ZM3.16479 2.85921H17.1408V6.51986H3.16479V2.85921ZM4.57621 9.60289C5.35963 9.60289 5.99491 10.2333 5.99491 11.0108C5.99491 11.7883 5.35963 12.4188 4.57621 12.4188C3.79279 12.4188 3.16479 11.7883 3.16479 11.0108C3.16479 10.2333 3.79279 9.60289 4.57621 9.60289ZM10.1491 9.60289C10.9326 9.60289 11.5678 10.2333 11.5678 11.0108C11.5678 11.7883 10.9326 12.4188 10.1491 12.4188C9.36573 12.4188 8.73045 11.7883 8.73045 11.0108C8.73045 10.2333 9.36573 9.60289 10.1491 9.60289ZM15.7221 9.60289C16.5055 9.60289 17.1408 10.2333 17.1408 11.0108C17.1408 11.7883 16.5055 12.4188 15.7221 12.4188C14.9387 12.4188 14.3034 11.7883 14.3034 11.0108C14.3034 10.2333 14.9387 9.60289 15.7221 9.60289ZM4.57621 14.2166C5.35963 14.2166 5.99491 14.8471 5.99491 15.6245C5.99491 16.402 5.35963 17.0325 4.57621 17.0325C3.79279 17.0325 3.16479 16.402 3.16479 15.6245C3.16479 14.8471 3.79279 14.2166 4.57621 14.2166ZM10.1491 14.2166C10.9326 14.2166 11.5678 14.8471 11.5678 15.6245C11.5678 16.402 10.9326 17.0325 10.1491 17.0325C9.36573 17.0325 8.73045 16.402 8.73045 15.6245C8.73045 14.8471 9.36573 14.2166 10.1491 14.2166ZM15.7221 14.2166C16.5055 14.2166 17.1408 14.8471 17.1408 15.6245C17.1408 16.402 16.5055 17.0325 15.7221 17.0325C14.9387 17.0325 14.3034 16.402 14.3034 15.6245C14.3034 14.8471 14.9387 14.2166 15.7221 14.2166Z" fill="white"/>
</svg>
