<svg width="22" height="17" viewBox="0 0 22 17" fill="none" xmlns="http://www.w3.org/2000/svg">
<path d="M19.8 0H2.2C0.99 0 0.011 0.95625 0.011 2.125L0 14.875C0 16.0438 0.99 17 2.2 17H19.8C21.01 17 22 16.0438 22 14.875V2.125C22 0.95625 21.01 0 19.8 0ZM19.36 4.51562L11.583 9.21187C11.231 9.42438 10.769 9.42438 10.417 9.21187L2.64 4.51562C2.365 4.34562 2.2 4.05875 2.2 3.75063C2.2 3.03875 3.003 2.61375 3.63 2.98563L11 7.4375L18.37 2.98563C18.997 2.61375 19.8 3.03875 19.8 3.75063C19.8 4.05875 19.635 4.34562 19.36 4.51562Z" fill="#F97C4E"/>
</svg>
