<?xml version="1.0" encoding="UTF-8" standalone="no"?>
<svg
   width="33"
   height="33"
   viewBox="0 0 33 33"
   fill="none"
   version="1.1"
   id="svg9"
   sodipodi:docname="filter.svg"
   inkscape:version="1.3.2 (091e20e, 2023-11-25, custom)"
   xmlns:inkscape="http://www.inkscape.org/namespaces/inkscape"
   xmlns:sodipodi="http://sodipodi.sourceforge.net/DTD/sodipodi-0.dtd"
   xmlns="http://www.w3.org/2000/svg"
   xmlns:svg="http://www.w3.org/2000/svg">
  <sodipodi:namedview
     id="namedview9"
     pagecolor="#ffffff"
     bordercolor="#cccccc"
     borderopacity="1"
     inkscape:showpageshadow="0"
     inkscape:pageopacity="1"
     inkscape:pagecheckerboard="0"
     inkscape:deskcolor="#d1d1d1"
     inkscape:zoom="35.787879"
     inkscape:cx="16.486029"
     inkscape:cy="16.5"
     inkscape:window-width="3440"
     inkscape:window-height="1377"
     inkscape:window-x="-8"
     inkscape:window-y="-8"
     inkscape:window-maximized="1"
     inkscape:current-layer="svg9" />
  <path
     style="color:#000000;fill:#9ba1aa;stroke-linecap:round;stroke-linejoin:round;-inkscape-stroke:none"
     d="M 27.5,20.349609 A 1.65,1.65 0 0 0 25.849609,22 v 6.875 A 1.65,1.65 0 0 0 27.5,30.525391 1.65,1.65 0 0 0 29.150391,28.875 V 22 A 1.65,1.65 0 0 0 27.5,20.349609 Z"
     id="path1" />
  <path
     style="color:#000000;fill:#9ba1aa;stroke-linecap:round;stroke-linejoin:round;-inkscape-stroke:none"
     d="M 23.375,20.349609 A 1.65,1.65 0 0 0 21.724609,22 1.65,1.65 0 0 0 23.375,23.650391 h 8.25 A 1.65,1.65 0 0 0 33.275391,22 1.65,1.65 0 0 0 31.625,20.349609 Z"
     id="path2" />
  <path
     style="color:#000000;fill:#9ba1aa;stroke-linecap:round;stroke-linejoin:round;-inkscape-stroke:none"
     d="M 5.5,17.599609 A 1.65,1.65 0 0 0 3.8496094,19.25 v 9.625 A 1.65,1.65 0 0 0 5.5,30.525391 1.65,1.65 0 0 0 7.1503906,28.875 V 19.25 A 1.65,1.65 0 0 0 5.5,17.599609 Z"
     id="path3" />
  <path
     style="color:#000000;fill:#9ba1aa;stroke-linecap:round;stroke-linejoin:round;-inkscape-stroke:none"
     d="M 1.375,17.599609 A 1.65,1.65 0 0 0 -0.27539063,19.25 1.65,1.65 0 0 0 1.375,20.900391 h 8.25 A 1.65,1.65 0 0 0 11.275391,19.25 1.65,1.65 0 0 0 9.625,17.599609 Z"
     id="path4" />
  <path
     style="color:#000000;fill:#9ba1aa;stroke-linecap:round;stroke-linejoin:round;-inkscape-stroke:none"
     d="M 16.5,14.849609 A 1.65,1.65 0 0 0 14.849609,16.5 V 28.875 A 1.65,1.65 0 0 0 16.5,30.525391 1.65,1.65 0 0 0 18.150391,28.875 V 16.5 A 1.65,1.65 0 0 0 16.5,14.849609 Z"
     id="path5" />
  <path
     style="color:#000000;fill:#9ba1aa;stroke-linecap:round;stroke-linejoin:round;-inkscape-stroke:none"
     d="M 12.375,9.3496094 A 1.65,1.65 0 0 0 10.724609,11 1.65,1.65 0 0 0 12.375,12.650391 h 8.25 A 1.65,1.65 0 0 0 22.275391,11 1.65,1.65 0 0 0 20.625,9.3496094 Z"
     id="path6" />
  <path
     style="color:#000000;fill:#9ba1aa;stroke-linecap:round;stroke-linejoin:round;-inkscape-stroke:none"
     d="M 27.5,2.4746094 A 1.65,1.65 0 0 0 25.849609,4.125 V 16.5 A 1.65,1.65 0 0 0 27.5,18.150391 1.65,1.65 0 0 0 29.150391,16.5 V 4.125 A 1.65,1.65 0 0 0 27.5,2.4746094 Z"
     id="path7" />
  <path
     style="color:#000000;fill:#9ba1aa;stroke-linecap:round;stroke-linejoin:round;-inkscape-stroke:none"
     d="M 16.5,2.4746094 A 1.65,1.65 0 0 0 14.849609,4.125 V 11 A 1.65,1.65 0 0 0 16.5,12.650391 1.65,1.65 0 0 0 18.150391,11 V 4.125 A 1.65,1.65 0 0 0 16.5,2.4746094 Z"
     id="path8" />
  <path
     style="color:#000000;fill:#9ba1aa;stroke-linecap:round;stroke-linejoin:round;-inkscape-stroke:none"
     d="M 5.5,2.4746094 A 1.65,1.65 0 0 0 3.8496094,4.125 V 13.75 A 1.65,1.65 0 0 0 5.5,15.400391 1.65,1.65 0 0 0 7.1503906,13.75 V 4.125 A 1.65,1.65 0 0 0 5.5,2.4746094 Z"
     id="path9" />
  <defs
     id="defs9">
    <clipPath
       clipPathUnits="userSpaceOnUse"
       id="clipPath10">
      <g
         id="g11">
        <rect
           width="33"
           height="33"
           fill="#ffffff"
           id="rect10"
           x="0"
           y="0" />
      </g>
    </clipPath>
    <clipPath
       clipPathUnits="userSpaceOnUse"
       id="clipPath11">
      <g
         id="g12">
        <rect
           width="33"
           height="33"
           fill="#ffffff"
           id="rect11"
           x="0"
           y="0" />
      </g>
    </clipPath>
    <clipPath
       clipPathUnits="userSpaceOnUse"
       id="clipPath12">
      <g
         id="g13">
        <rect
           width="33"
           height="33"
           fill="#ffffff"
           id="rect12"
           x="0"
           y="0" />
      </g>
    </clipPath>
    <clipPath
       clipPathUnits="userSpaceOnUse"
       id="clipPath13">
      <g
         id="g14">
        <rect
           width="33"
           height="33"
           fill="#ffffff"
           id="rect13"
           x="0"
           y="0" />
      </g>
    </clipPath>
    <clipPath
       clipPathUnits="userSpaceOnUse"
       id="clipPath14">
      <g
         id="g15">
        <rect
           width="33"
           height="33"
           fill="#ffffff"
           id="rect14"
           x="0"
           y="0" />
      </g>
    </clipPath>
    <clipPath
       clipPathUnits="userSpaceOnUse"
       id="clipPath15">
      <g
         id="g16">
        <rect
           width="33"
           height="33"
           fill="#ffffff"
           id="rect15"
           x="0"
           y="0" />
      </g>
    </clipPath>
    <clipPath
       clipPathUnits="userSpaceOnUse"
       id="clipPath16">
      <g
         id="g17">
        <rect
           width="33"
           height="33"
           fill="#ffffff"
           id="rect16"
           x="0"
           y="0" />
      </g>
    </clipPath>
    <clipPath
       clipPathUnits="userSpaceOnUse"
       id="clipPath17">
      <g
         id="g18">
        <rect
           width="33"
           height="33"
           fill="#ffffff"
           id="rect17"
           x="0"
           y="0" />
      </g>
    </clipPath>
    <clipPath
       clipPathUnits="userSpaceOnUse"
       id="clipPath18">
      <g
         id="g19">
        <rect
           width="33"
           height="33"
           fill="#ffffff"
           id="rect18"
           x="0"
           y="0" />
      </g>
    </clipPath>
  </defs>
</svg>
