<?xml version="1.0" encoding="UTF-8" standalone="no"?>
<svg
   width="18"
   height="22"
   viewBox="0 0 18 22"
   fill="none"
   version="1.1"
   id="svg2"
   sodipodi:docname="location.svg"
   inkscape:version="1.3.2 (091e20e, 2023-11-25, custom)"
   xmlns:inkscape="http://www.inkscape.org/namespaces/inkscape"
   xmlns:sodipodi="http://sodipodi.sourceforge.net/DTD/sodipodi-0.dtd"
   xmlns="http://www.w3.org/2000/svg"
   xmlns:svg="http://www.w3.org/2000/svg">
  <defs
     id="defs2" />
  <sodipodi:namedview
     id="namedview2"
     pagecolor="#ffffff"
     bordercolor="#cccccc"
     borderopacity="1"
     inkscape:showpageshadow="0"
     inkscape:pageopacity="1"
     inkscape:pagecheckerboard="0"
     inkscape:deskcolor="#d1d1d1"
     inkscape:zoom="53.681818"
     inkscape:cx="8.9974598"
     inkscape:cy="11"
     inkscape:window-width="3440"
     inkscape:window-height="1377"
     inkscape:window-x="-8"
     inkscape:window-y="-8"
     inkscape:window-maximized="1"
     inkscape:current-layer="svg2" />
  <path
     style="color:#000000;fill:#f97c4e;-inkscape-stroke:none"
     d="m 9,0.5 c -4.6933356,0 -8.5,3.8796981 -8.5,8.6425781 0,4.6529319 2.5927128,10.0056759 6.8261719,11.9843749 1.0619108,0.49642 2.2857454,0.49642 3.3476561,0 C 14.907308,19.148255 17.5,13.795509 17.5,9.1425781 17.5,4.3796996 13.693354,0.5 9,0.5 Z m 0,1 c 4.143237,0 7.5,3.4106257 7.5,7.6425781 0,4.2714599 -2.513934,9.3328269 -6.248047,11.0781249 -0.7952872,0.371779 -1.7086188,0.371779 -2.5039061,0 C 4.013954,18.475406 1.5,13.414037 1.5,9.1425781 1.5,4.9106271 4.8567844,1.5 9,1.5 Z"
     id="path1" />
  <path
     style="color:#000000;fill:#f97c4e;-inkscape-stroke:none"
     d="M 9,5.5 C 7.0729303,5.5 5.5,7.072922 5.5,9 c 0,1.927036 1.5729203,3.5 3.5,3.5 1.927122,0 3.5,-1.572974 3.5,-3.5 C 12.5,7.072932 10.927112,5.5 9,5.5 Z m 0,1 c 1.386685,0 2.5,1.1133513 2.5,2.5 0,1.386591 -1.113325,2.5 -2.5,2.5 C 7.6133831,11.5 6.5,10.38658 6.5,9 6.5,7.6133614 7.613373,6.5 9,6.5 Z"
     id="path2" />
</svg>
