<svg width="16" height="26" viewBox="0 0 16 26" fill="none" xmlns="http://www.w3.org/2000/svg">
<path d="M12.9231 0H3.07692C1.37846 0 0 1.32364 0 2.95455V23.0455C0 24.6764 1.37846 26 3.07692 26H12.9231C14.6215 26 16 24.6764 16 23.0455V2.95455C16 1.32364 14.6215 0 12.9231 0ZM8 24.8182C6.97846 24.8182 6.15385 24.0264 6.15385 23.0455C6.15385 22.0645 6.97846 21.2727 8 21.2727C9.02154 21.2727 9.84615 22.0645 9.84615 23.0455C9.84615 24.0264 9.02154 24.8182 8 24.8182ZM13.5385 20.0909H2.46154V3.54545H13.5385V20.0909Z" fill="#F97C4E"/>
</svg>
