<svg width="26" height="29" viewBox="0 0 26 29" fill="none" xmlns="http://www.w3.org/2000/svg">
<path d="M22.8535 6.25586V11.6387C22.8547 13.6741 22.3527 15.6778 21.3926 17.4727C20.4324 19.2675 19.0454 20.797 17.3516 21.9258L13 24.8223L8.64844 21.9258C6.9546 20.797 5.56753 19.2674 4.60742 17.4727C3.6473 15.6778 3.14532 13.6741 3.14649 11.6387V6.25586L13.4414 2.82422L22.8535 6.25586ZM13 0.0292969L12.5586 0.175781L0.353518 4.24414V11.6367C0.352088 14.132 0.967536 16.5887 2.14453 18.7891C3.32154 20.9893 5.02509 22.8662 7.10156 24.25L13 28.1777L18.8984 24.25C20.975 22.8662 22.6784 20.9893 23.8555 18.7891C25.0324 16.5888 25.6479 14.1321 25.6465 11.6367V4.24414L13 0.0292969Z" fill="#4D8A4A"/>
</svg>
