<svg width="31" height="32" viewBox="0 0 31 32" fill="none" xmlns="http://www.w3.org/2000/svg">
<path d="M15.5 0C12.4345 0 9.43762 0.938379 6.88866 2.69648C4.33971 4.45458 2.35303 6.95343 1.17988 9.87705C0.00672221 12.8006 -0.300237 16.0178 0.297831 19.1214C0.895899 22.2252 2.37214 25.076 4.53985 27.3138C6.70757 29.5514 9.46939 31.0752 12.4761 31.6926C15.4828 32.31 18.5994 31.993 21.4317 30.782C24.2639 29.571 26.6846 27.5204 28.3879 24.8892C30.0909 22.258 31 19.1646 31 16C31 11.7565 29.3669 7.68687 26.4602 4.6863C23.5534 1.6857 19.6108 0 15.5 0ZM23.1144 10.96L20.5763 23.34C20.3825 24.22 19.8787 24.42 19.1619 24.02L15.2869 21.06L13.3494 22.92C13.2581 23.043 13.1409 23.143 13.0066 23.2124C12.8724 23.2816 12.7245 23.3184 12.5744 23.32L12.8456 19.32L20.0144 12.62C20.3438 12.34 20.0144 12.18 19.5494 12.46L10.7531 18.16L6.87812 16.92C6.045 16.66 6.02562 16.06 7.0525 15.66L21.9906 9.65999C22.7269 9.43999 23.3469 9.87999 23.1144 10.96Z" fill="#72B2FE"/>
</svg>
