<svg width="27" height="15" viewBox="0 0 27 15" fill="none" xmlns="http://www.w3.org/2000/svg">
<path d="M26.3847 1.01719C26.5701 0.43125 26.3847 0 25.4925 0H22.5402C21.7884 0 21.4425 0.370312 21.2571 0.782812C21.2571 0.782812 19.7534 4.20937 17.6282 6.43125C16.9415 7.07344 16.6257 7.27969 16.2498 7.27969C16.0644 7.27969 15.7787 7.07344 15.7787 6.4875V1.01719C15.7787 0.314062 15.5681 0 14.9466 0H10.3053C9.8341 0 9.55341 0.328125 9.55341 0.632812C9.55341 1.29844 10.616 1.45312 10.7263 3.32812V7.39688C10.7263 8.2875 10.5559 8.45156 10.1799 8.45156C9.17749 8.45156 6.74152 5.01094 5.29798 1.07344C5.00727 0.309375 4.72157 0 3.96472 0H1.01248C0.170418 0 0 0.370312 0 0.782812C0 1.51406 1.00246 5.14688 4.66643 9.94688C7.10742 13.2234 10.5458 15 13.6735 15C15.5531 15 15.7837 14.6063 15.7837 13.9266C15.7837 10.7953 15.6133 10.5 16.5556 10.5C16.9916 10.5 17.7435 10.7063 19.4978 12.2859C21.5027 14.1609 21.8335 15 22.9563 15H25.9085C26.7506 15 27.1766 14.6062 26.931 13.8281C26.3696 12.1922 22.5753 8.82656 22.4049 8.60156C21.9688 8.07656 22.0941 7.84219 22.4049 7.37344C22.4099 7.36875 26.0137 2.625 26.3847 1.01719Z" fill="#F97C4E"/>
</svg>
