<svg width="28" height="29" viewBox="0 0 28 29" fill="none" xmlns="http://www.w3.org/2000/svg">
<path d="M14 0C6.28059 0 9.03455e-05 6.50483 9.03455e-05 14.5C9.03455e-05 16.9965 0.622784 19.4514 1.80365 21.6176L0.022612 28.1993C-0.0358226 28.4156 0.020786 28.6476 0.171742 28.8083C0.288003 28.9325 0.446263 29 0.608784 29C0.65748 29 0.706784 28.9937 0.754871 28.9817L7.3872 27.2802C9.41232 28.4061 11.6931 29 14 29C21.7195 29 28 22.4952 28 14.5C28 6.50483 21.7195 0 14 0ZM21.0426 19.6166C20.7432 20.4753 19.3066 21.2589 18.6164 21.3642C17.9967 21.4581 17.2127 21.4985 16.352 21.2185C15.8304 21.0483 15.1608 20.8226 14.3032 20.4437C10.6979 18.8513 8.34346 15.1386 8.16328 14.8934C7.98372 14.6482 6.69572 12.9006 6.69572 11.0919C6.69572 9.28315 7.62398 8.39361 7.95389 8.02543C8.2838 7.65726 8.67276 7.56522 8.91258 7.56522C9.15241 7.56522 9.39163 7.56837 9.60163 7.57846C9.82258 7.5898 10.119 7.49209 10.4106 8.20952C10.7101 8.94587 11.4289 10.7546 11.5178 10.9393C11.6079 11.1234 11.6675 11.3384 11.5482 11.5836C11.4289 11.8288 11.3693 11.982 11.1891 12.197C11.0089 12.412 10.8117 12.6762 10.6498 12.8413C10.4696 13.0248 10.2828 13.2234 10.4921 13.5915C10.7015 13.9597 11.4228 15.1632 12.4917 16.1379C13.8643 17.3899 15.0227 17.7783 15.3818 17.9623C15.7409 18.1464 15.9509 18.1155 16.1603 17.8703C16.3697 17.6244 17.0587 16.7967 17.2979 16.4291C17.5372 16.0616 17.777 16.1221 18.1069 16.245C18.4368 16.3673 20.2039 17.2563 20.563 17.4403C20.9221 17.6244 21.1619 17.7165 21.252 17.8697C21.3421 18.0222 21.3421 18.7586 21.0426 19.6166Z" fill="#0FB800"/>
</svg>
