<svg width="58" height="58" viewBox="0 0 58 58" fill="none" xmlns="http://www.w3.org/2000/svg">
<path d="M53.2171 10.6557H39.9399L38.9084 6.52932C38.3749 4.39601 36.4667 2.90625 34.2681 2.90625H23.7317C21.5332 2.90625 19.625 4.39613 19.0914 6.52944L18.06 10.6557H4.78285C2.14566 10.6557 0 12.8013 0 15.4386V50.3112C0 52.9485 2.14566 55.094 4.78285 55.094H53.217C55.8543 55.094 57.9999 52.9484 57.9999 50.3112V15.4386C58 12.8013 55.8543 10.6557 53.2171 10.6557ZM20.8535 6.9701C21.1845 5.64675 22.3682 4.72249 23.7319 4.72249H34.2683C35.6319 4.72249 36.8155 5.64675 37.1466 6.96999L38.0679 10.6557H35.946L35.1492 7.46888C35.0483 7.06458 34.685 6.78104 34.2683 6.78104H23.7319C23.3152 6.78104 22.9519 7.06458 22.8509 7.46888L22.0544 10.6557H19.9324L20.8535 6.9701ZM34.0738 10.6557H23.9262L24.4409 8.59727H33.5591L34.0738 10.6557ZM4.78285 12.4719H53.217C54.1239 12.4719 54.9363 12.8813 55.481 13.5244L49.5847 31.2132C49.0482 32.8227 47.5479 33.9041 45.8513 33.9041H32.8142V31.9061C32.8142 30.8712 31.9723 30.0293 30.9373 30.0293H27.0625C26.0276 30.0293 25.1857 30.8712 25.1857 31.9061V33.9041H12.1486C10.4521 33.9041 8.95171 32.8227 8.41521 31.2133L2.51892 13.5244C3.06358 12.8813 3.87603 12.4719 4.78285 12.4719ZM27.0021 35.8415V31.9062C27.0021 31.8728 27.0291 31.8458 27.0625 31.8458H30.9373C30.9708 31.8458 30.9978 31.8728 30.9978 31.9062V35.8415H27.0021ZM30.9979 37.6578V39.6557C30.9979 39.6891 30.9709 39.7162 30.9374 39.7162H27.0627C27.0292 39.7162 27.0022 39.6891 27.0022 39.6557V37.6578H30.9979ZM56.1838 50.3112C56.1838 51.9469 54.8529 53.2778 53.2171 53.2778H4.78285C3.14707 53.2778 1.81624 51.9469 1.81624 50.3112V17.1601L6.69209 31.7876C7.47622 34.1399 9.66901 35.7204 12.1486 35.7204H25.1858V39.6557C25.1858 40.6906 26.0277 41.5326 27.0627 41.5326H30.9374C31.9724 41.5326 32.8143 40.6906 32.8143 39.6557V35.7204H45.8515C48.3311 35.7204 50.5238 34.14 51.308 31.7876L56.1839 17.1601L56.1838 50.3112Z" fill="#406F3D"/>
</svg>
