<svg width="59" height="59" viewBox="0 0 59 59" fill="none" xmlns="http://www.w3.org/2000/svg">
<path d="M58.9377 33.11L58.9384 33.1098L49.4602 8.46658C50.4387 8.00161 51.1169 7.00402 51.1169 5.85064C51.1169 5.3405 50.7034 4.92681 50.1931 4.92681C49.683 4.92681 49.2693 5.34039 49.2693 5.85064C49.2693 6.42797 48.7996 6.89766 48.2222 6.89766C47.8286 6.89766 47.4717 6.67999 47.2908 6.32967C46.8372 5.45136 46.0215 4.92681 45.1086 4.92681H33.2678C32.8523 3.23206 31.3209 1.9707 29.4998 1.9707C27.6786 1.9707 26.1476 3.23206 25.7318 4.92681H13.8909C12.978 4.92681 12.1623 5.45124 11.7087 6.32967C11.528 6.67999 11.1712 6.89766 10.7775 6.89766C10.2002 6.89766 9.73051 6.42797 9.73051 5.85064C9.73051 5.3405 9.31693 4.92681 8.80667 4.92681C8.29641 4.92681 7.88284 5.34039 7.88284 5.85064C7.88284 7.00402 8.56099 8.00161 9.53956 8.46658L0.0615352 33.1098L0.0622266 33.11C0.0227012 33.213 0 33.3245 0 33.4414C0 39.3843 4.83477 44.2191 10.7776 44.2191C16.7205 44.2191 21.5553 39.3843 21.5553 33.4414C21.5553 33.3246 21.5326 33.213 21.4929 33.1101L21.4936 33.1099L12.0158 8.46704C12.5796 8.20073 13.0525 7.75512 13.3508 7.17722C13.3996 7.08261 13.5828 6.77436 13.8913 6.77436H25.7322C25.8854 7.39916 26.1901 7.96508 26.6057 8.43051V51.24H18.6609C17.0648 51.24 15.7664 52.5384 15.7664 54.1345C15.7664 55.7306 17.0648 57.0291 18.6609 57.0291H40.3394C41.9355 57.0291 43.234 55.7306 43.234 54.1345C43.234 52.5384 41.9354 51.24 40.3393 51.24H32.3946V8.43051C32.8099 7.96508 33.1147 7.39916 33.2681 6.77436H45.109C45.4174 6.77436 45.6007 7.08261 45.6494 7.17722C45.9478 7.75501 46.4206 8.20085 46.9844 8.46704L37.5064 33.1097L37.5071 33.1099C37.4674 33.2129 37.4447 33.3244 37.4447 33.4412C37.4447 39.3841 42.2795 44.2188 48.2224 44.2188C54.1652 44.2188 59 39.3843 59 33.4414C59 33.3245 58.9773 33.213 58.9377 33.11ZM10.7776 42.3714C6.1655 42.3714 2.35885 38.8567 1.89503 34.3652H19.6601C19.1964 38.8567 15.3898 42.3714 10.7776 42.3714ZM19.2864 32.5176H2.26885L10.7776 10.3948L19.2864 32.5176ZM29.5 3.81826C30.6207 3.81826 31.5324 4.72999 31.5324 5.85064C31.5324 6.9713 30.6207 7.88292 29.5 7.88292C28.3793 7.88292 27.4676 6.97118 27.4676 5.85053C27.4676 4.72987 28.3793 3.81826 29.5 3.81826ZM30.547 9.58585V51.24H28.4531V9.58585C28.7864 9.67942 29.1374 9.73059 29.5001 9.73059C29.8629 9.73059 30.2136 9.67942 30.547 9.58585ZM40.3393 53.0875C40.9166 53.0875 41.3863 53.5572 41.3863 54.1345C41.3863 54.7119 40.9166 55.1816 40.3393 55.1816H18.6607C18.0834 55.1816 17.6137 54.7119 17.6137 54.1345C17.6137 53.5572 18.0834 53.0875 18.6607 53.0875H40.3393ZM48.2224 10.3948L56.7312 32.5176H39.7136L48.2224 10.3948ZM48.2224 42.3714C43.6102 42.3714 39.8036 38.8567 39.3397 34.3652H57.1049C56.6412 38.8567 52.8344 42.3714 48.2224 42.3714Z" fill="#406F3D"/>
</svg>
