<svg width="59" height="59" viewBox="0 0 59 59" fill="none" xmlns="http://www.w3.org/2000/svg">
<path d="M57.0293 24.7865V14.719C57.0293 12.0362 54.8466 9.8537 52.1639 9.8537H52.1024V7.82131C52.1024 6.76853 51.246 5.91211 50.1932 5.91211H6.83616C5.78338 5.91211 4.92696 6.76853 4.92696 7.82131V9.8537H4.86543C2.18265 9.85359 0 12.0362 0 14.719V48.2221C0 50.9049 2.18265 53.0874 4.86531 53.0874H52.1638C54.8466 53.0874 57.0291 50.9048 57.0291 48.2221V38.1547C58.1734 37.7682 58.9999 36.6852 58.9999 35.4121V27.529C59 26.256 58.1735 25.1731 57.0293 24.7865ZM6.77451 7.82131C6.77451 7.78743 6.80205 7.75978 6.83605 7.75978H50.193C50.227 7.75978 50.2545 7.78755 50.2545 7.82131V9.8537H6.77451V7.82131ZM55.1816 48.2221C55.1816 49.8861 53.8278 51.2399 52.1638 51.2399H4.86531C3.20133 51.2399 1.84755 49.8861 1.84755 48.2221V14.719C1.84755 13.055 3.20133 11.7013 4.86531 11.7013H52.1638C53.8278 11.7013 55.1816 13.055 55.1816 14.719V24.6345H53.0877V14.719C53.0877 14.2089 52.6741 13.7952 52.1638 13.7952H4.86531C4.35517 13.7952 3.94148 14.2088 3.94148 14.719V48.2221C3.94148 48.7323 4.35505 49.146 4.86531 49.146H52.1638C52.674 49.146 53.0877 48.7324 53.0877 48.2221V38.3067H55.1816V48.2221ZM44.2808 38.3067H51.2401V47.2983H5.78914V15.6427H51.2401V24.6344H44.2808C42.6847 24.6344 41.3862 25.9328 41.3862 27.5289V35.412C41.3862 37.0082 42.6848 38.3067 44.2808 38.3067ZM57.1524 35.4121C57.1524 35.9886 56.6839 36.4579 56.1076 36.459C56.1069 36.459 56.1062 36.4589 56.1055 36.4589C56.1042 36.4589 56.1028 36.4591 56.1014 36.4591H52.1652C52.1649 36.4591 52.1645 36.4591 52.1639 36.4591C52.1634 36.4591 52.1633 36.4591 52.1627 36.4591H44.2809C43.7036 36.4591 43.2339 35.9894 43.2339 35.4121V27.529C43.2339 26.9517 43.7036 26.482 44.2809 26.482H56.1055C56.6829 26.482 57.1526 26.9517 57.1526 27.529L57.1524 35.4121Z" fill="#406F3D"/>
<path d="M48.2225 28.5762C46.6263 28.5762 45.3279 29.8746 45.3279 31.4707C45.3279 33.0669 46.6263 34.3653 48.2225 34.3653C49.8186 34.3653 51.117 33.0669 51.117 31.4707C51.117 29.8747 49.8186 28.5762 48.2225 28.5762ZM48.2225 32.5178C47.6451 32.5178 47.1754 32.0481 47.1754 31.4707C47.1754 30.8934 47.6451 30.4237 48.2225 30.4237C48.7998 30.4237 49.2695 30.8934 49.2695 31.4707C49.2694 32.0481 48.7998 32.5178 48.2225 32.5178Z" fill="#406F3D"/>
</svg>
