<svg width="29" height="29" viewBox="0 0 29 29" fill="none" xmlns="http://www.w3.org/2000/svg">
<g clip-path="url(#clip0_43_441)">
<path d="M19.1445 24.4126C18.6914 24.4126 18.3516 24.0446 18.3516 23.5915V19.5696C18.3516 19.1164 18.6914 18.7766 19.1445 18.7766H23.1665C23.6196 18.7766 23.9875 19.1164 23.9875 19.5696V23.5915C23.9875 24.0446 23.6196 24.4126 23.1665 24.4126H19.1445ZM23.1665 19.5696H19.1445V23.5915H23.1665V19.5696ZM27.1875 2.71875C28.1789 2.71875 29 3.53981 29 4.53125V27.1875C29 28.1789 28.1789 29 27.1875 29H1.8125C0.821063 29 0 28.1789 0 27.1875V4.53125C0 3.53981 0.821063 2.71875 1.8125 2.71875H9.0625V0.90625C9.0625 0.396031 9.45944 0 9.96875 0C10.4781 0 10.875 0.396938 10.875 0.90625V2.71875H18.125V0.90625C18.125 0.396031 18.5219 0 19.0312 0C19.5406 0 19.9375 0.396938 19.9375 0.90625V2.71875H27.1875ZM1.8125 27.1875H27.1875V4.53125H19.9375V5.4375C19.9375 5.94772 19.5406 6.34375 19.0312 6.34375C18.5219 6.34375 18.125 5.94681 18.125 5.4375V4.53125H10.875V5.4375C10.875 5.94772 10.4781 6.34375 9.96875 6.34375C9.45944 6.34375 9.0625 5.94681 9.0625 5.4375V4.53125H1.8125V27.1875Z" fill="#4D8A4A"/>
</g>
<defs>
<clipPath id="clip0_43_441">
<rect width="29" height="29" fill="white"/>
</clipPath>
</defs>
</svg>
