<svg width="266" height="50" viewBox="0 0 266 50" fill="none" xmlns="http://www.w3.org/2000/svg">
<path d="M92.6315 49.5598H91.5891V46.6848C89.168 46.6848 87.1672 45.2221 87.1672 42.1285C87.1672 39.0853 89.168 37.5889 91.5891 37.5889V34.4281H92.6315V37.5889C95.0694 37.5889 97.0533 39.0853 97.0533 42.1285C97.0533 45.2221 95.0357 46.6848 92.6315 46.6848V49.5598ZM91.5891 45.7601V38.5137C89.706 38.5137 88.2264 39.7242 88.2264 42.1453C88.2264 44.5664 89.6555 45.7601 91.5891 45.7601ZM92.6315 38.5137V45.7601C94.5145 45.7601 95.9941 44.5664 95.9941 42.1453C95.9941 39.7242 94.565 38.5137 92.6315 38.5137ZM100.114 46.6176H99.0719V37.5721H100.114V45.0203L105.326 37.5721H106.369V46.6176H105.326V39.1357L100.114 46.6176ZM110.163 46.6176H109.12V37.5721H110.163V41.5568H115.24V37.5721H116.283V46.6176H115.24V42.4647H110.163V46.6176ZM119.424 44.3478C119.424 45.3061 120.282 45.9114 121.492 45.9114C123.173 45.9114 124.687 45.0371 124.687 42.4815V42.0444C121.021 42.4479 119.424 42.9523 119.424 44.3478ZM124.703 46.6176L124.653 45.2389C124.065 46.1972 122.938 46.8361 121.257 46.8361C119.559 46.8361 118.264 45.861 118.264 44.3646C118.264 42.2966 120.282 41.5736 124.636 41.1197V40.8002C124.636 38.7322 123.409 38.2951 122.114 38.2951C120.567 38.2951 119.66 39.1357 119.575 40.3295H118.483C118.735 38.5305 120.147 37.3704 122.181 37.3704C124.283 37.3704 125.679 38.2446 125.679 40.9347C125.679 42.1957 125.662 43.0027 125.662 43.7257C125.662 44.7513 125.712 45.6256 125.763 46.6176H124.703ZM129.11 46.6176H128.068V37.5721H129.11V41.5568H134.188V37.5721H135.23V46.6176H134.188V42.4647H129.11V46.6176ZM141.314 37.4208C143.382 37.4208 144.761 38.8667 145.03 40.4808H143.937C143.601 39.1189 142.541 38.3792 141.213 38.3792C139.666 38.3792 138.271 39.6233 138.271 42.1117C138.271 44.6841 139.666 45.8778 141.23 45.8778C142.777 45.8778 143.735 44.8858 144.004 43.7593H145.114C144.761 45.6256 143.231 46.8361 141.23 46.8361C138.674 46.8361 137.161 44.9026 137.161 42.1285C137.161 39.3207 138.674 37.4208 141.314 37.4208ZM147.35 42.1285C147.35 44.7345 148.578 45.8778 150.326 45.8778C152.058 45.8778 153.319 44.7345 153.319 42.1285C153.319 39.5224 152.058 38.3792 150.326 38.3792C148.578 38.3792 147.35 39.5224 147.35 42.1285ZM146.241 42.1285C146.241 38.8331 148.174 37.4208 150.326 37.4208C152.495 37.4208 154.429 38.8331 154.429 42.1285C154.429 45.4238 152.495 46.8361 150.326 46.8361C148.174 46.8361 146.241 45.4238 146.241 42.1285ZM160.209 46.6176H156.325V37.5721H159.906C161.638 37.5721 163.117 38.0429 163.117 39.8419C163.117 40.8507 162.68 41.54 161.789 41.9099C162.748 42.1621 163.487 42.7842 163.487 44.0452C163.487 45.8778 162.025 46.6176 160.209 46.6176ZM157.367 42.4479V45.7096H160.091C161.638 45.7096 162.428 45.1212 162.428 44.0452C162.428 42.8851 161.638 42.4479 160.024 42.4479H157.367ZM157.367 38.48V41.5568H159.957C161.251 41.5568 162.058 41.1701 162.058 39.9428C162.058 38.8499 161.201 38.48 159.873 38.48H157.367ZM166.136 44.3478C166.136 45.3061 166.994 45.9114 168.204 45.9114C169.885 45.9114 171.399 45.0371 171.399 42.4815V42.0444C167.733 42.4479 166.136 42.9523 166.136 44.3478ZM171.415 46.6176L171.365 45.2389C170.777 46.1972 169.65 46.8361 167.969 46.8361C166.271 46.8361 164.976 45.861 164.976 44.3646C164.976 42.2966 166.994 41.5736 171.348 41.1197V40.8002C171.348 38.7322 170.121 38.2951 168.826 38.2951C167.279 38.2951 166.372 39.1357 166.288 40.3295H165.195C165.447 38.5305 166.859 37.3704 168.894 37.3704C170.995 37.3704 172.391 38.2446 172.391 40.9347C172.391 42.1957 172.374 43.0027 172.374 43.7257C172.374 44.7513 172.424 45.6256 172.475 46.6176H171.415ZM175.133 46.6176H173.922L176.394 42.8346C175.183 42.4984 174.393 41.6913 174.393 40.3463C174.393 38.4632 175.755 37.5721 177.655 37.5721H181.001V46.6176H179.958V43.1036H177.42L175.133 46.6176ZM177.874 42.1957H179.958V38.48H177.672C176.259 38.48 175.452 39.1862 175.452 40.3967C175.452 41.7922 176.512 42.1957 177.874 42.1957ZM188.793 46.6176H187.751V37.5721H188.793V41.5232H190.004L193.148 37.5721H194.375L190.929 41.8763L194.627 46.6176H193.35L190.122 42.4311H188.793V46.6176ZM196.378 42.1285C196.378 44.7345 197.605 45.8778 199.354 45.8778C201.085 45.8778 202.346 44.7345 202.346 42.1285C202.346 39.5224 201.085 38.3792 199.354 38.3792C197.605 38.3792 196.378 39.5224 196.378 42.1285ZM195.268 42.1285C195.268 38.8331 197.201 37.4208 199.354 37.4208C201.522 37.4208 203.456 38.8331 203.456 42.1285C203.456 45.4238 201.522 46.8361 199.354 46.8361C197.201 46.8361 195.268 45.4238 195.268 42.1285ZM206.378 46.6176H205.352V37.5721H206.865L209.976 45.2893L213.002 37.5721H214.549V46.6176H213.523V38.9508L210.463 46.6176H209.421L206.378 39.0853V46.6176ZM218.348 46.6176H217.305V37.5721H224.333V46.6176H223.291V38.48H218.348V46.6176ZM227.478 44.3478C227.478 45.3061 228.335 45.9114 229.546 45.9114C231.227 45.9114 232.74 45.0371 232.74 42.4815V42.0444C229.075 42.4479 227.478 42.9523 227.478 44.3478ZM232.757 46.6176L232.706 45.2389C232.118 46.1972 230.992 46.8361 229.31 46.8361C227.612 46.8361 226.317 45.861 226.317 44.3646C226.317 42.2966 228.335 41.5736 232.69 41.1197V40.8002C232.69 38.7322 231.462 38.2951 230.168 38.2951C228.621 38.2951 227.713 39.1357 227.629 40.3295H226.536C226.788 38.5305 228.201 37.3704 230.235 37.3704C232.337 37.3704 233.732 38.2446 233.732 40.9347C233.732 42.1957 233.715 43.0027 233.715 43.7257C233.715 44.7513 233.766 45.6256 233.816 46.6176H232.757ZM237.164 46.6176H236.121V37.5721H237.164V41.5568H242.241V37.5721H243.284V46.6176H242.241V42.4647H237.164V46.6176ZM247.081 46.6176H246.038V37.5721H247.081V45.0203L252.293 37.5721H253.335V46.6176H252.293V39.1357L247.081 46.6176ZM256.44 46.6176H255.229L257.701 42.8346C256.49 42.4984 255.7 41.6913 255.7 40.3463C255.7 38.4632 257.062 37.5721 258.962 37.5721H262.308V46.6176H261.265V43.1036H258.726L256.44 46.6176ZM259.18 42.1957H261.265V38.48H258.979C257.566 38.48 256.759 39.1862 256.759 40.3967C256.759 41.7922 257.819 42.1957 259.18 42.1957Z" fill="#787878"/>
<path d="M88.4133 31.7923L88.2536 32.1438C87.7211 32.1438 87.3696 32.0586 87.1992 31.8882C87.0502 31.7391 86.9863 31.4196 87.0076 30.9297L87.1673 25.2428C87.1673 24.8807 87.2631 24.6251 87.4548 24.476C87.6465 24.327 87.8702 24.2311 88.1258 24.1885C88.3601 24.1672 88.6263 24.0394 88.9245 23.8051C89.2014 23.5921 89.425 23.2513 89.5954 22.7828C89.9575 21.803 90.2663 20.3653 90.5219 18.4697C90.7775 16.5314 90.9053 14.6465 90.9053 12.8147V8.21411C90.9053 7.78812 90.7775 7.47928 90.5219 7.28759C90.2663 7.0959 89.9788 7.00005 89.6593 7.00005C89.3398 7.00005 89.0523 6.87226 88.7967 6.61667C88.5411 6.36107 88.4133 5.92444 88.4133 5.30676C88.4133 4.3483 88.6476 3.86907 89.1162 3.86907C89.5209 3.86907 90.0214 3.87972 90.6178 3.90102L94.1321 3.96492C95.0906 3.98621 96.5283 3.99686 98.4452 3.99686C99.3611 3.99686 100.777 3.97556 102.694 3.93297C104.143 3.89037 105.293 3.85842 106.145 3.83712C106.72 3.81582 107.22 3.80517 107.646 3.80517C108.115 3.80517 108.349 4.2844 108.349 5.24287C108.349 5.83924 108.222 6.26523 107.966 6.52082C107.71 6.77641 107.423 6.90421 107.103 6.90421C106.784 6.90421 106.496 7.00005 106.241 7.19174C105.985 7.38344 105.857 7.68163 105.857 8.08631V22.5911C105.857 23.0596 105.985 23.3898 106.241 23.5815C106.496 23.7732 106.784 23.869 107.103 23.869C107.444 23.869 107.753 23.9436 108.03 24.0927C108.307 24.2418 108.466 24.5293 108.509 24.9553L108.669 30.6422C108.69 31.1107 108.626 31.4302 108.477 31.6006C108.328 31.7497 107.977 31.8243 107.423 31.8243C106.784 31.8243 106.337 31.6965 106.081 31.4409C105.804 31.164 105.591 30.6422 105.442 29.8754C105.123 28.5761 104.814 27.7348 104.515 27.3514C104.239 27.0106 103.632 26.8403 102.694 26.8403H93.2695C92.3111 26.8403 91.6721 27.0106 91.3526 27.3514C91.0118 27.7135 90.703 28.5442 90.4261 29.8434C90.277 30.6102 90.064 31.132 89.7871 31.4089C89.5315 31.6645 89.0736 31.7923 88.4133 31.7923ZM101.257 22.8147L101.193 8.43775C101.193 7.94787 101.044 7.60708 100.746 7.41539C100.469 7.22369 99.8936 7.12785 99.0203 7.12785H96.5922C95.6976 7.12785 95.0586 7.21304 94.6753 7.38344C94.3345 7.53253 94.1641 7.87332 94.1641 8.4058V13.0064C94.1641 14.6678 94.0682 16.2972 93.8765 17.8946C93.6849 19.5133 93.4932 20.7806 93.3015 21.6965C93.1098 22.6337 93.0139 23.1129 93.0139 23.1342C93.0139 23.4963 93.1737 23.7732 93.4932 23.9649C93.8126 24.1566 94.4516 24.2524 95.4101 24.2524H98.3494C99.5847 24.2524 100.373 24.1566 100.714 23.9649C101.076 23.7732 101.257 23.3898 101.257 22.8147ZM118.761 27.3195L118.729 27.3514C116.024 27.3514 113.979 26.6699 112.595 25.3067C111.189 23.9223 110.486 21.7497 110.486 18.7892C110.486 15.8073 111.179 13.6454 112.563 12.3036C113.926 10.9617 115.992 10.2908 118.761 10.2908C121.487 10.2908 123.532 10.9617 124.895 12.3036C126.28 13.6454 126.972 15.7966 126.972 18.7572C126.972 21.7391 126.269 23.9116 124.863 25.2748C123.479 26.6379 121.445 27.3195 118.761 27.3195ZM118.729 24.2524L118.761 24.2844C120.082 24.2844 120.998 23.8797 121.509 23.0703C122.02 22.2822 122.276 20.8765 122.276 18.8531C122.276 16.8296 122.031 15.4239 121.541 14.6358C121.051 13.869 120.124 13.4857 118.761 13.4857C117.398 13.4857 116.461 13.869 115.95 14.6358C115.438 15.4026 115.183 16.8083 115.183 18.8531C115.183 20.8765 115.438 22.2822 115.95 23.0703C116.461 23.8584 117.387 24.2524 118.729 24.2524ZM137.382 10.2588H137.254C139.597 10.2588 141.514 10.7274 143.005 11.6646C143.409 11.9202 143.612 12.3249 143.612 12.8786C143.612 14.2418 143.505 15.36 143.292 16.2333C143.228 16.5953 143.1 16.819 142.909 16.9042C142.696 17.0107 142.398 17.0639 142.014 17.0639C141.375 17.0639 140.917 16.9468 140.64 16.7125C140.406 16.4995 140.236 16.1161 140.129 15.5623C140.001 14.753 139.756 14.1779 139.394 13.8371C139.032 13.5176 138.361 13.3579 137.382 13.3579C136.061 13.3579 135.177 13.7412 134.73 14.508C134.283 15.2748 134.059 16.6912 134.059 18.7572C134.059 20.5889 134.325 21.8775 134.858 22.623C135.39 23.3898 136.412 23.7732 137.925 23.7732C139.224 23.7732 140.555 23.5495 141.918 23.1022C142.664 22.868 143.079 22.7508 143.164 22.7508C143.526 22.7508 143.707 23.1555 143.707 23.9649C143.707 24.4334 143.644 24.7955 143.516 25.0511C143.388 25.3067 143.164 25.5623 142.845 25.8179C141.482 26.819 139.533 27.3195 136.998 27.3195C134.4 27.3195 132.483 26.6486 131.247 25.3067C130.012 23.9862 129.394 21.803 129.394 18.7572C129.394 15.7966 130.055 13.6348 131.375 12.2716C132.696 10.9298 134.698 10.2588 137.382 10.2588ZM148.864 24.6677L149.056 24.6997C149.056 24.4441 149.237 24.2631 149.599 24.1566C149.94 24.0501 150.323 23.9862 150.749 23.9649C151.175 23.9223 151.559 23.7838 151.9 23.5495C152.262 23.2939 152.443 22.8999 152.443 22.3674V14.8914C152.443 14.3589 152.357 14.0075 152.187 13.8371C152.017 13.6667 151.665 13.5815 151.133 13.5815C150.494 13.5815 150.068 13.7093 149.855 13.9649C149.642 14.2205 149.418 14.8595 149.184 15.8818C149.099 16.4782 148.918 16.8935 148.641 17.1278C148.406 17.3408 147.927 17.4473 147.203 17.4473C146.649 17.4473 146.298 17.3728 146.149 17.2237C145.978 17.0533 145.914 16.7338 145.957 16.2652L146.149 11.5687C146.17 10.8446 146.585 10.4825 147.395 10.4825C147.48 10.4825 147.629 10.4931 147.842 10.5144C148.076 10.5144 148.417 10.5251 148.864 10.5464C149.312 10.5464 149.748 10.5464 150.174 10.5464C152.262 10.589 153.785 10.6103 154.743 10.6103C155.701 10.6103 157.224 10.589 159.312 10.5464C159.738 10.5464 160.174 10.5464 160.622 10.5464C161.069 10.5251 161.399 10.5144 161.612 10.5144C161.846 10.4931 162.006 10.4825 162.091 10.4825C162.901 10.4825 163.316 10.8446 163.337 11.5687L163.529 16.2652C163.572 16.7338 163.508 17.0533 163.337 17.2237C163.188 17.3728 162.837 17.4473 162.283 17.4473C161.559 17.4473 161.08 17.3408 160.845 17.1278C160.568 16.8935 160.387 16.4782 160.302 15.8818C160.068 14.8595 159.844 14.2205 159.631 13.9649C159.418 13.7093 158.992 13.5815 158.353 13.5815C157.821 13.5815 157.469 13.6667 157.299 13.8371C157.129 14.0075 157.043 14.3589 157.043 14.8914V22.3674C157.043 22.8999 157.224 23.2939 157.586 23.5495C157.927 23.7838 158.311 23.9223 158.737 23.9649C159.163 23.9862 159.546 24.0501 159.887 24.1566C160.249 24.2631 160.43 24.4441 160.43 24.6997C160.43 25.2961 160.366 25.8392 160.238 26.3291C160.11 26.7977 159.94 27.0319 159.727 27.0319L159.503 27C159.376 27 159.163 27 158.864 27C158.566 26.9787 158.247 26.9681 157.906 26.9681C156.33 26.9255 155.244 26.9042 154.647 26.9042C154.051 26.9042 152.965 26.9255 151.388 26.9681C151.048 26.9681 150.728 26.9787 150.43 27C150.132 27 149.919 27 149.791 27L149.567 27.0319C149.354 27.0319 149.184 26.787 149.056 26.2971C148.928 25.8285 148.864 25.2854 148.864 24.6677ZM173.58 27.3195L173.548 27.3514C170.843 27.3514 168.798 26.6699 167.413 25.3067C166.008 23.9223 165.305 21.7497 165.305 18.7892C165.305 15.8073 165.997 13.6454 167.381 12.3036C168.745 10.9617 170.811 10.2908 173.58 10.2908C176.306 10.2908 178.351 10.9617 179.714 12.3036C181.098 13.6454 181.79 15.7966 181.79 18.7572C181.79 21.7391 181.088 23.9116 179.682 25.2748C178.297 26.6379 176.263 27.3195 173.58 27.3195ZM173.548 24.2524L173.58 24.2844C174.9 24.2844 175.816 23.8797 176.327 23.0703C176.838 22.2822 177.094 20.8765 177.094 18.8531C177.094 16.8296 176.849 15.4239 176.359 14.6358C175.869 13.869 174.943 13.4857 173.58 13.4857C172.216 13.4857 171.279 13.869 170.768 14.6358C170.257 15.4026 170.001 16.8083 170.001 18.8531C170.001 20.8765 170.257 22.2822 170.768 23.0703C171.279 23.8584 172.206 24.2524 173.548 24.2524ZM186.449 27.3195L186.417 27.3834C185.587 27.3834 184.916 27.2662 184.404 27.0319C183.893 26.7551 183.638 26.0202 183.638 24.8275C183.638 24.5506 183.723 24.3589 183.893 24.2524C184.064 24.1459 184.277 24.0927 184.532 24.0927C184.767 24.0927 185.065 23.9755 185.427 23.7412C185.768 23.5282 186.087 23.2087 186.385 22.7828L188.462 19.492C186.14 18.6614 184.98 17.1278 184.98 14.8914C184.98 13.3366 185.459 12.2184 186.417 11.5368C187.397 10.8552 188.909 10.5144 190.954 10.5144C191.146 10.5144 192.328 10.5357 194.5 10.5783C194.926 10.5783 195.384 10.589 195.874 10.6103C196.364 10.6103 196.737 10.6209 196.992 10.6422C197.269 10.6422 197.472 10.6422 197.599 10.6422C198.004 10.6422 198.718 10.6209 199.74 10.5783C199.953 10.5783 200.166 10.5783 200.379 10.5783C200.592 10.557 200.752 10.5464 200.858 10.5464C200.986 10.5251 201.071 10.5144 201.114 10.5144C201.518 10.5144 201.721 11.0043 201.721 11.9841C201.721 12.5804 201.593 13.0064 201.337 13.262C201.082 13.5176 200.815 13.6454 200.539 13.6454C200.283 13.6454 200.017 13.7306 199.74 13.901C199.484 14.0714 199.357 14.3802 199.357 14.8275V22.3994C199.357 22.9106 199.474 23.3046 199.708 23.5815C199.921 23.8158 200.177 23.9542 200.475 23.9968C200.752 24.0394 201.007 24.1033 201.241 24.1885C201.476 24.295 201.593 24.476 201.593 24.7316C201.593 25.3493 201.529 25.8924 201.401 26.361C201.273 26.8296 201.103 27.0639 200.89 27.0639C200.869 27.0639 200.805 27.0532 200.698 27.0319C200.613 27.0319 200.464 27.0213 200.251 27C200.059 27 199.846 27 199.612 27C198.547 26.9574 197.78 26.9361 197.312 26.9361C196.843 26.9361 196.055 26.9574 194.948 27C194.713 27 194.479 27 194.245 27C194.032 27.0213 193.872 27.0319 193.765 27.0319C193.659 27.0532 193.595 27.0639 193.574 27.0639C193.361 27.0639 193.19 26.819 193.063 26.3291C192.935 25.8392 192.871 25.2961 192.871 24.6997C192.871 24.4441 192.967 24.2524 193.158 24.1246C193.329 24.0181 193.552 23.9436 193.829 23.901C194.085 23.8797 194.309 23.7306 194.5 23.4537C194.692 23.1981 194.788 22.7934 194.788 22.2396V20.6741H193.829C193.361 20.6741 193.009 20.7487 192.775 20.8978C192.519 21.0469 192.264 21.3664 192.008 21.8562L190.603 24.6038C190.091 25.5836 189.527 26.2865 188.909 26.7125C188.313 27.1171 187.493 27.3195 186.449 27.3195ZM189.644 15.6582L189.612 15.6901C189.612 16.6699 189.868 17.3302 190.379 17.6709C190.911 18.033 191.71 18.2141 192.775 18.2141H194.724V14.9234C194.724 14.3696 194.596 13.9968 194.341 13.8051C194.085 13.6135 193.435 13.5176 192.392 13.5176C191.455 13.5176 190.762 13.6774 190.315 13.9968C189.868 14.3163 189.644 14.8701 189.644 15.6582ZM214.725 11.8882L214.693 11.9202C214.693 10.9404 214.884 10.4505 215.268 10.4505C215.31 10.4505 215.396 10.4612 215.523 10.4825C215.651 10.4825 215.832 10.4931 216.066 10.5144C216.322 10.5144 216.578 10.5144 216.833 10.5144C218.026 10.557 218.825 10.5783 219.229 10.5783C219.591 10.5783 220.412 10.557 221.689 10.5144C221.966 10.5144 222.233 10.5144 222.488 10.5144C222.744 10.4931 222.935 10.4825 223.063 10.4825C223.212 10.4612 223.308 10.4505 223.351 10.4505C223.755 10.4505 223.958 10.9404 223.958 11.9202C223.958 12.5165 223.83 12.9425 223.574 13.1981C223.319 13.4537 223.053 13.5815 222.776 13.5815C222.499 13.5815 222.233 13.6774 221.977 13.869C221.721 14.0607 221.594 14.3589 221.594 14.7636V22.3355C221.594 22.8467 221.711 23.2407 221.945 23.5176C222.158 23.7519 222.414 23.8903 222.712 23.9329C222.989 23.9755 223.244 24.0394 223.479 24.1246C223.713 24.2311 223.83 24.4121 223.83 24.6677C223.83 25.2854 223.766 25.8285 223.638 26.2971C223.511 26.7657 223.34 27 223.127 27C223.106 27 223.053 27 222.967 27C222.882 26.9787 222.765 26.9681 222.616 26.9681C222.488 26.9468 222.35 26.9361 222.201 26.9361C221.519 26.8935 220.997 26.8722 220.635 26.8722C220.443 26.8722 219.922 26.8935 219.07 26.9361C218.899 26.9361 218.718 26.9468 218.527 26.9681C218.356 26.9681 218.218 26.9787 218.111 27C218.026 27 217.962 27 217.92 27C217.6 27 217.376 26.8829 217.249 26.6486C217.121 26.4143 217.057 25.967 217.057 25.3067V20.0032H211.178V22.3355C211.178 22.8467 211.295 23.2407 211.53 23.5176C211.743 23.7519 211.998 23.8903 212.297 23.9329C212.573 23.9755 212.829 24.0394 213.063 24.1246C213.298 24.2311 213.415 24.4121 213.415 24.6677C213.415 25.2854 213.351 25.8285 213.223 26.2971C213.095 26.7657 212.925 27 212.712 27H212.584C212.478 26.9787 212.318 26.9681 212.105 26.9681C211.913 26.9468 211.7 26.9361 211.466 26.9361C210.401 26.8935 209.56 26.8722 208.942 26.8722C208.346 26.8722 207.472 26.8935 206.322 26.9361C206.066 26.9361 205.832 26.9468 205.619 26.9681C205.406 26.9681 205.246 26.9787 205.14 27H204.98C204.767 27 204.597 26.7551 204.469 26.2652C204.341 25.7753 204.277 25.2322 204.277 24.6358C204.277 24.3802 204.405 24.1992 204.661 24.0927C204.916 24.0075 205.193 23.9436 205.491 23.901C205.811 23.8584 206.088 23.7199 206.322 23.4856C206.578 23.23 206.705 22.836 206.705 22.3035V14.7317C206.705 14.2631 206.567 13.9542 206.29 13.8051C205.992 13.6348 205.694 13.5496 205.396 13.5496C205.076 13.5496 204.778 13.4218 204.501 13.1662C204.224 12.9106 204.086 12.4739 204.086 11.8563C204.086 10.8765 204.277 10.3866 204.661 10.3866L205.875 10.4505C206.684 10.4931 207.195 10.5144 207.408 10.5144C207.621 10.5144 208.196 10.4931 209.134 10.4505C209.325 10.4505 209.517 10.4505 209.709 10.4505C209.922 10.4292 210.071 10.4186 210.156 10.4186C210.262 10.3973 210.326 10.3866 210.348 10.3866C210.667 10.3866 210.891 10.5144 211.019 10.77C211.146 11.0256 211.21 11.4835 211.21 12.1438V17.3195H217.089V14.7636C217.089 14.3376 216.961 14.0288 216.705 13.8371C216.45 13.6454 216.184 13.5496 215.907 13.5496C215.63 13.5496 215.364 13.4218 215.108 13.1662C214.852 12.9106 214.725 12.4846 214.725 11.8882ZM226.459 24.6677L226.267 24.7636C226.267 24.508 226.395 24.327 226.651 24.2205C226.906 24.114 227.194 24.0501 227.513 24.0288C227.854 23.9862 228.142 23.8477 228.376 23.6134C228.632 23.3578 228.759 22.9638 228.759 22.4313V14.8595C228.759 14.4335 228.621 14.1246 228.344 13.9329C228.067 13.7412 227.748 13.6454 227.386 13.6454C227.024 13.6454 226.704 13.5176 226.427 13.262C226.15 13.0064 226.012 12.5804 226.012 11.9841C226.012 11.0043 226.214 10.5144 226.619 10.5144C226.661 10.5144 226.736 10.5251 226.842 10.5464C226.97 10.5464 227.151 10.557 227.386 10.5783C227.641 10.5783 227.897 10.5783 228.152 10.5783C229.345 10.6209 230.144 10.6422 230.549 10.6422C230.911 10.6422 231.731 10.6209 233.009 10.5783C233.285 10.5783 233.552 10.5783 233.807 10.5783C234.063 10.557 234.255 10.5464 234.382 10.5464C234.531 10.5251 234.627 10.5144 234.67 10.5144C235.075 10.5144 235.277 11.0043 235.277 11.9841C235.277 12.5591 235.17 12.9638 234.957 13.1981C234.744 13.4537 234.51 13.5922 234.255 13.6135C233.999 13.6561 233.765 13.7625 233.552 13.9329C233.339 14.1246 233.232 14.4335 233.232 14.8595V21.7923L238.983 11.9202C239.324 11.3451 239.622 10.9724 239.878 10.802C240.154 10.6103 240.485 10.5144 240.868 10.5144C240.889 10.5144 241.283 10.5357 242.05 10.5783C242.817 10.6209 243.296 10.6422 243.488 10.6422C243.786 10.6422 244.297 10.6209 245.021 10.5783C245.128 10.5783 245.224 10.5783 245.309 10.5783C245.415 10.557 245.501 10.5464 245.564 10.5464C245.628 10.5464 245.682 10.5464 245.724 10.5464C245.767 10.5251 245.799 10.5144 245.82 10.5144H245.884C246.289 10.5144 246.491 11.0043 246.491 11.9841C246.491 12.5804 246.363 13.0064 246.108 13.262C245.852 13.5176 245.586 13.6454 245.309 13.6454C245.032 13.6454 244.766 13.7412 244.51 13.9329C244.255 14.1246 244.127 14.4228 244.127 14.8275V22.3994C244.127 22.9106 244.244 23.3046 244.478 23.5815C244.691 23.8158 244.947 23.9542 245.245 23.9968C245.543 24.0394 245.799 24.1033 246.012 24.1885C246.246 24.295 246.363 24.476 246.363 24.7316C246.363 25.3493 246.299 25.8924 246.171 26.361C246.044 26.8296 245.873 27.0639 245.66 27.0639H245.501C245.415 27.0426 245.266 27.0213 245.053 27C244.862 27 244.649 27 244.414 27C243.349 26.9574 242.551 26.9361 242.018 26.9361C241.486 26.9361 240.687 26.9574 239.622 27C239.388 27 239.164 27 238.951 27C238.759 27.0213 238.621 27.0426 238.536 27.0639H238.376C238.163 27.0639 237.993 26.819 237.865 26.3291C237.737 25.8392 237.673 25.2961 237.673 24.6997C237.673 24.4228 237.78 24.2418 237.993 24.1566C238.206 24.0714 238.451 24.0075 238.727 23.9649C239.004 23.9223 239.249 23.7838 239.462 23.5495C239.675 23.3152 239.782 22.9212 239.782 22.3674V16.0096L234.191 25.6582C233.658 26.574 233.094 27.0319 232.497 27.0319C232.476 27.0319 232.412 27.0213 232.306 27C232.221 27 232.082 27 231.89 27C231.72 26.9787 231.55 26.9681 231.379 26.9681C230.527 26.9255 230.005 26.9042 229.814 26.9042C229.516 26.9042 228.983 26.9255 228.216 26.9681C228.067 26.9681 227.907 26.9787 227.737 27C227.567 27 227.439 27 227.354 27C227.268 27.0213 227.205 27.0319 227.162 27.0319C226.949 27.0319 226.779 26.787 226.651 26.2971C226.523 25.8285 226.459 25.2854 226.459 24.6677ZM257 27.3195V27.2875C254.338 27.2875 252.357 26.6166 251.058 25.2748C249.758 23.9542 249.109 21.771 249.109 18.7253C249.109 15.7647 249.769 13.6028 251.09 12.2397C252.41 10.8978 254.391 10.2269 257.032 10.2269C259.758 10.2269 261.633 10.802 262.655 11.9521C263.677 13.1023 264.189 15.0298 264.189 17.7348C264.189 18.4803 264.082 18.9596 263.869 19.1725C263.656 19.3855 263.177 19.492 262.431 19.492H253.837C253.858 21.0469 254.167 22.1544 254.764 22.8147C255.339 23.4537 256.489 23.7732 258.214 23.7732C259.471 23.7732 260.813 23.5495 262.24 23.1022C263.006 22.868 263.432 22.7508 263.518 22.7508C263.858 22.7508 264.029 23.1555 264.029 23.9649C264.029 24.8381 263.752 25.4558 263.198 25.8179C261.516 26.819 259.45 27.3195 257 27.3195ZM257.128 13.3579L257.096 13.3898C255.946 13.3898 255.147 13.6454 254.7 14.1566C254.231 14.6891 253.954 15.6369 253.869 17H259.556C259.769 17 259.876 16.819 259.876 16.4569C259.876 15.3067 259.694 14.4974 259.332 14.0288C258.992 13.5815 258.257 13.3579 257.128 13.3579Z" fill="#2D2D2D"/>
<path d="M77.875 23.9617H68.5566C59.3666 23.9617 51.9166 31.4117 51.9166 40.6017V49.9201H61.235C70.425 49.9201 77.875 42.4701 77.875 33.2801V23.9617Z" fill="#D6DF6A"/>
<path d="M66.8389 2.66248L63.9965 3.42408C55.1197 5.80263 49.8517 14.927 52.2303 23.8038L52.9919 26.6462L55.8342 25.8846C64.7111 23.506 69.979 14.3817 67.6005 5.50481L66.8389 2.66248Z" fill="#D6DF6A"/>
<path d="M26.624 0.00012207C39.49 0.000127491 49.9199 10.43 49.9199 23.296V49.92H23.2959C10.4299 49.92 1.10496e-05 39.4901 0 26.6241V0.00012207H26.624ZM25.5 11.2404C25.3218 11.2404 25.145 11.2754 24.9805 11.3439C24.816 11.4124 24.6665 11.5124 24.541 11.6388L12.3887 23.7853C12.2015 23.975 12.0748 24.2161 12.0244 24.4777C11.974 24.7394 12.0021 25.0103 12.1055 25.256C12.2067 25.5024 12.3786 25.7135 12.5996 25.8624C12.8206 26.0113 13.0811 26.0915 13.3477 26.0929H14.6982V35.9445C14.7229 36.5756 14.9969 37.1718 15.46 37.6017C15.923 38.0314 16.5375 38.2603 17.1689 38.2384H20.7744C21.1324 38.2383 21.4754 38.0959 21.7285 37.8429C21.9817 37.5898 22.124 37.2467 22.124 36.8888V30.2765C22.124 29.9188 22.2666 29.5754 22.5195 29.3224C22.7728 29.0693 23.1165 28.9269 23.4746 28.9269H27.5254C27.8835 28.9269 28.2273 29.0693 28.4805 29.3224C28.7334 29.5754 28.876 29.9188 28.876 30.2765V36.8888C28.876 37.2467 29.0183 37.5898 29.2715 37.8429C29.5246 38.0959 29.8676 38.2383 30.2256 38.2384H33.8311C34.4625 38.2603 35.077 38.0314 35.54 37.6017C36.0031 37.1718 36.2771 36.5756 36.3018 35.9445V26.0929H37.6523C37.9189 26.0915 38.1794 26.0113 38.4004 25.8624C38.6214 25.7135 38.7933 25.5024 38.8945 25.256C38.9979 25.0103 39.026 24.7394 38.9756 24.4777C38.9252 24.2161 38.7985 23.975 38.6113 23.7853L26.459 11.6388C26.3335 11.5124 26.1839 11.4124 26.0195 11.3439C25.855 11.2754 25.6782 11.2404 25.5 11.2404Z" fill="#4D8A4A"/>
</svg>
