<svg width="276" height="56" viewBox="0 0 276 56" fill="none" xmlns="http://www.w3.org/2000/svg">
<path d="M92.2764 28.2484H88.587V20.3106H90.8789C92.9472 16.6026 93.9813 11.3107 93.9813 4.435H107.286V20.3106H109.773V28.2484H106.084V24H92.2764V28.2484ZM97.8943 8.20825C97.5403 13.6678 96.6831 17.7019 95.3229 20.3106H103.093V8.20825H97.8943ZM111.84 18.0466C111.411 16.8355 111.197 15.5591 111.197 14.2175C111.197 12.8759 111.411 11.5995 111.84 10.3883C112.287 9.17718 112.93 8.09645 113.768 7.14615C114.626 6.19585 115.725 5.4412 117.066 4.8822C118.408 4.3232 119.917 4.0437 121.594 4.0437C123.271 4.0437 124.781 4.3232 126.122 4.8822C127.464 5.4412 128.554 6.19585 129.392 7.14615C130.25 8.09645 130.892 9.17718 131.321 10.3883C131.768 11.5995 131.992 12.8759 131.992 14.2175C131.992 15.5591 131.768 16.8355 131.321 18.0466C130.892 19.2578 130.25 20.3385 129.392 21.2888C128.554 22.2391 127.464 22.9938 126.122 23.5528C124.781 24.1118 123.271 24.3913 121.594 24.3913C119.917 24.3913 118.408 24.1118 117.066 23.5528C115.725 22.9938 114.626 22.2391 113.768 21.2888C112.93 20.3385 112.287 19.2578 111.84 18.0466ZM126.094 18.7174C127.156 17.5249 127.687 16.0249 127.687 14.2175C127.687 12.4101 127.156 10.9101 126.094 9.71755C125.032 8.52502 123.532 7.92875 121.594 7.92875C119.638 7.92875 118.129 8.52502 117.066 9.71755C116.004 10.9101 115.473 12.4101 115.473 14.2175C115.473 16.0249 116.004 17.5249 117.066 18.7174C118.129 19.91 119.638 20.5062 121.594 20.5062C123.532 20.5062 125.032 19.91 126.094 18.7174ZM134.016 14.4411C134.016 12.7268 134.314 11.1896 134.91 9.82935C135.525 8.45048 136.326 7.35112 137.314 6.53125C138.32 5.71138 139.438 5.09648 140.668 4.68655C141.897 4.25798 143.183 4.0437 144.525 4.0437C146.574 4.0437 148.438 4.46295 150.115 5.30145V9.2983C148.792 8.27347 147.161 7.76105 145.223 7.76105C143.323 7.76105 141.692 8.32937 140.332 9.466C138.991 10.584 138.32 12.2424 138.32 14.4411C138.32 15.4846 138.515 16.4162 138.907 17.2361C139.298 18.0373 139.82 18.6802 140.472 19.1646C141.143 19.6491 141.879 20.0218 142.68 20.2826C143.5 20.5249 144.348 20.646 145.223 20.646C147.385 20.646 149.062 20.1056 150.254 19.0249V23.1335C148.522 23.972 146.63 24.3913 144.581 24.3913C143.239 24.3913 141.953 24.1863 140.724 23.7764C139.494 23.3665 138.366 22.7702 137.342 21.9876C136.335 21.205 135.525 20.1615 134.91 18.8572C134.314 17.5529 134.016 16.0808 134.016 14.4411ZM151.66 4.435H167.843V8.20825H161.834V24H157.67V8.20825H151.66V4.435ZM169.241 18.0466C168.812 16.8355 168.598 15.5591 168.598 14.2175C168.598 12.8759 168.812 11.5995 169.241 10.3883C169.688 9.17718 170.331 8.09645 171.17 7.14615C172.027 6.19585 173.126 5.4412 174.468 4.8822C175.809 4.3232 177.319 4.0437 178.996 4.0437C180.673 4.0437 182.182 4.3232 183.523 4.8822C184.865 5.4412 185.955 6.19585 186.794 7.14615C187.651 8.09645 188.294 9.17718 188.722 10.3883C189.169 11.5995 189.393 12.8759 189.393 14.2175C189.393 15.5591 189.169 16.8355 188.722 18.0466C188.294 19.2578 187.651 20.3385 186.794 21.2888C185.955 22.2391 184.865 22.9938 183.523 23.5528C182.182 24.1118 180.673 24.3913 178.996 24.3913C177.319 24.3913 175.809 24.1118 174.468 23.5528C173.126 22.9938 172.027 22.2391 171.17 21.2888C170.331 20.3385 169.688 19.2578 169.241 18.0466ZM183.496 18.7174C184.558 17.5249 185.089 16.0249 185.089 14.2175C185.089 12.4101 184.558 10.9101 183.496 9.71755C182.433 8.52502 180.933 7.92875 178.996 7.92875C177.039 7.92875 175.53 8.52502 174.468 9.71755C173.406 10.9101 172.875 12.4101 172.875 14.2175C172.875 16.0249 173.406 17.5249 174.468 18.7174C175.53 19.91 177.039 20.5062 178.996 20.5062C180.933 20.5062 182.433 19.91 183.496 18.7174ZM195.474 24H190.639L196.089 16.8168C193.182 15.8479 191.729 13.9007 191.729 10.9753C191.729 8.77657 192.474 7.13683 193.965 6.0561C195.455 4.97537 197.328 4.435 199.583 4.435H207.548V24H203.356V17.3479H200.421L195.474 24ZM196.983 8.8511C196.35 9.31693 196.033 10.025 196.033 10.9753C196.033 11.9256 196.35 12.643 196.983 13.1274C197.636 13.6119 198.511 13.8541 199.611 13.8541H203.356V8.1244H199.611C198.511 8.1244 197.636 8.36663 196.983 8.8511ZM224.719 4.435H228.911V24H224.719V16.1181H215.942V24H211.75V4.435H215.942V12.3169H224.719V4.435ZM250.256 24H246.063V13.91C246.063 12.9225 246.091 12.0281 246.147 11.2268L237.035 24H233.094V4.435H237.287V14.5249C237.287 15.5125 237.259 16.4069 237.203 17.2081L246.315 4.435H250.256V24ZM254.439 4.435H268.218V8.1244H258.631V12.2889H267.38V15.9504H258.631V20.3106H268.386V24H254.439V4.435Z" fill="#393939"/>
<path d="M98.7474 49.8171H95.7306V47.9734C93.4959 47.8757 91.7221 47.2751 90.4093 46.1717C89.1104 45.0684 88.4609 43.567 88.4609 41.6675C88.4609 39.768 89.1104 38.2666 90.4093 37.1632C91.7221 36.0599 93.4959 35.4593 95.7306 35.3615V33.5179H98.7474V35.3615C100.954 35.4733 102.707 36.0808 104.006 37.1842C105.305 38.2876 105.954 39.782 105.954 41.6675C105.954 43.553 105.305 45.0474 104.006 46.1508C102.707 47.2542 100.954 47.8617 98.7474 47.9734V49.8171ZM92.5881 39.1325C91.9316 39.8029 91.6034 40.6479 91.6034 41.6675C91.6034 42.6871 91.9316 43.532 92.5881 44.2024C93.2585 44.8728 94.306 45.2569 95.7306 45.3547V37.9803C94.306 38.0781 93.2585 38.4621 92.5881 39.1325ZM98.7474 37.9803V45.3547C100.144 45.243 101.171 44.8519 101.827 44.1815C102.483 43.5111 102.812 42.6731 102.812 41.6675C102.812 40.6619 102.483 39.8239 101.827 39.1535C101.171 38.4831 100.144 38.092 98.7474 37.9803ZM120.848 49H117.705V41.437C117.705 40.6968 117.726 40.0264 117.768 39.4258L110.938 49H107.984V34.335H111.127V41.8979C111.127 42.6382 111.106 43.3086 111.064 43.9091L117.894 34.335H120.848V49ZM133.704 34.335H136.847V49H133.704V43.0921H127.126V49H123.983V34.335H127.126V40.2429H133.704V34.335ZM141.721 49H138.474L144.465 34.335H147.859L153.83 49H150.583L149.514 46.2555H142.81L141.721 49ZM145.827 38.3993L143.795 43.6577H148.53L146.477 38.3993C146.337 38.0082 146.232 37.6241 146.162 37.247C146.079 37.68 145.967 38.0641 145.827 38.3993ZM165.19 34.335H168.333V49H165.19V43.0921H158.612V49H155.47V34.335H158.612V40.2429H165.19V34.335ZM170.652 41.8351C170.652 40.5502 170.875 39.3979 171.322 38.3783C171.783 37.3448 172.383 36.5208 173.124 35.9062C173.878 35.2917 174.716 34.8308 175.638 34.5235C176.559 34.2023 177.523 34.0417 178.529 34.0417C180.065 34.0417 181.462 34.3559 182.719 34.9844V37.9803C181.727 37.2121 180.505 36.828 179.052 36.828C177.628 36.828 176.406 37.254 175.386 38.106C174.381 38.944 173.878 40.187 173.878 41.8351C173.878 42.6172 174.024 43.3156 174.318 43.9301C174.611 44.5307 175.002 45.0125 175.491 45.3756C175.994 45.7388 176.545 46.0181 177.146 46.2136C177.761 46.3952 178.396 46.486 179.052 46.486C180.673 46.486 181.93 46.081 182.823 45.2709V48.3505C181.525 48.979 180.107 49.2933 178.571 49.2933C177.565 49.2933 176.601 49.1397 175.68 48.8324C174.758 48.5251 173.913 48.0782 173.145 47.4916C172.39 46.905 171.783 46.1229 171.322 45.1452C170.875 44.1675 170.652 43.0642 170.652 41.8351Z" fill="#4D8A4A"/>
<path d="M77.8751 23.9617H68.5567C59.3667 23.9617 51.9167 31.4116 51.9167 40.6017V49.9201H61.2351C70.4251 49.9201 77.8751 42.4701 77.8751 33.2801V23.9617Z" fill="#D6DF6A"/>
<path d="M66.8384 2.66251L63.9961 3.42411C55.1192 5.80266 49.8513 14.927 52.2298 23.8039L52.9914 26.6462L55.8338 25.8846C64.7106 23.506 69.9786 14.3817 67.6 5.50484L66.8384 2.66251Z" fill="#D6DF6A"/>
<path d="M26.624 0.00012207C39.49 0.000127491 49.9199 10.43 49.9199 23.296V49.92H23.2959C10.4299 49.92 1.10496e-05 39.4901 0 26.6241V0.00012207H26.624ZM25.5 11.2404C25.3218 11.2404 25.145 11.2754 24.9805 11.3439C24.816 11.4124 24.6665 11.5124 24.541 11.6388L12.3887 23.7853C12.2015 23.975 12.0748 24.2161 12.0244 24.4777C11.974 24.7394 12.0021 25.0103 12.1055 25.256C12.2067 25.5024 12.3786 25.7135 12.5996 25.8624C12.8206 26.0113 13.0811 26.0915 13.3477 26.0929H14.6982V35.9445C14.7229 36.5756 14.9969 37.1718 15.46 37.6017C15.923 38.0314 16.5375 38.2603 17.1689 38.2384H20.7744C21.1324 38.2383 21.4754 38.0959 21.7285 37.8429C21.9817 37.5898 22.124 37.2467 22.124 36.8888V30.2765C22.124 29.9188 22.2666 29.5754 22.5195 29.3224C22.7728 29.0693 23.1165 28.9269 23.4746 28.9269H27.5254C27.8835 28.9269 28.2273 29.0693 28.4805 29.3224C28.7334 29.5754 28.876 29.9188 28.876 30.2765V36.8888C28.876 37.2467 29.0183 37.5898 29.2715 37.8429C29.5246 38.0959 29.8676 38.2383 30.2256 38.2384H33.8311C34.4625 38.2603 35.077 38.0314 35.54 37.6017C36.0031 37.1718 36.2771 36.5756 36.3018 35.9445V26.0929H37.6523C37.9189 26.0915 38.1794 26.0113 38.4004 25.8624C38.6214 25.7135 38.7933 25.5024 38.8945 25.256C38.9979 25.0103 39.026 24.7394 38.9756 24.4777C38.9252 24.2161 38.7985 23.975 38.6113 23.7853L26.459 11.6388C26.3335 11.5124 26.1839 11.4124 26.0195 11.3439C25.855 11.2754 25.6782 11.2404 25.5 11.2404Z" fill="#4D8A4A"/>
</svg>
