<svg width="128" height="80" viewBox="0 0 128 80" fill="none" xmlns="http://www.w3.org/2000/svg">
<path d="M25.36 80C29.44 80 33.2 77.68 34.96 74.08L46.32 51.36C47.44 49.12 48 46.72 48 44.24V8C48 3.6 44.4 0 40 0H8C3.6 0 0 3.6 0 8V40C0 44.4 3.6 48 8 48H24L15.76 64.48C12.16 71.6 17.36 80 25.36 80ZM105.36 80C109.44 80 113.2 77.68 114.96 74.08L126.32 51.36C127.44 49.12 128 46.72 128 44.24V8C128 3.6 124.4 0 120 0H88C83.6 0 80 3.6 80 8V40C80 44.4 83.6 48 88 48H104L95.76 64.48C92.16 71.6 97.36 80 105.36 80Z" fill="#F5F5F7" fill-opacity="0.8"/>
</svg>
