<svg width="48" height="48" viewBox="0 0 48 48" fill="none" xmlns="http://www.w3.org/2000/svg">
<path d="M46.5 9H1.5V39H46.5V9Z" stroke="#406F3D" stroke-width="2" stroke-miterlimit="10" stroke-linecap="round" stroke-linejoin="round"/>
<path d="M42 30V18C39.45 18 37.5 16.05 37.5 13.5H10.5C10.5 16.05 8.55 18 6 18V30C8.55 30 10.5 31.95 10.5 34.5H37.5C37.5 31.95 39.45 30 42 30Z" stroke="#406F3D" stroke-width="2" stroke-miterlimit="10" stroke-linecap="round" stroke-linejoin="round"/>
<path d="M24 30C26.4853 30 28.5 27.3137 28.5 24C28.5 20.6863 26.4853 18 24 18C21.5147 18 19.5 20.6863 19.5 24C19.5 27.3137 21.5147 30 24 30Z" stroke="#406F3D" stroke-width="2" stroke-miterlimit="10" stroke-linecap="round" stroke-linejoin="round"/>
</svg>
