<svg width="35" height="35" viewBox="0 0 35 35" fill="none" xmlns="http://www.w3.org/2000/svg">
<g clip-path="url(#clip0_43_447)">
<path d="M31.7242 6.01562H3.27686C1.46451 6.01562 -0.00439453 7.48453 -0.00439453 9.29688V25.7031C-0.00439453 27.5155 1.46451 28.9844 3.27686 28.9844H31.7242C33.5365 28.9844 35.0055 27.5155 35.0055 25.7031V9.29688C35.0055 7.48453 33.5365 6.01562 31.7242 6.01562ZM3.27576 8.20312H31.7231C32.3269 8.20312 32.8169 8.69313 32.8169 9.29688V11.4844H2.18201V9.29688C2.18201 8.69313 2.67311 8.20312 3.27576 8.20312ZM31.7242 26.7969H3.27686C2.67311 26.7969 2.18311 26.3069 2.18311 25.7031V15.8594H32.8179V25.7031C32.8179 26.3069 32.3279 26.7969 31.7242 26.7969Z" fill="#4D8A4A"/>
</g>
<defs>
<clipPath id="clip0_43_447">
<rect width="35" height="35" fill="white"/>
</clipPath>
</defs>
</svg>
