<svg width="38" height="38" viewBox="0 0 38 38" fill="none" xmlns="http://www.w3.org/2000/svg">
<path fill-rule="evenodd" clip-rule="evenodd" d="M9.35873 14.1801C8.38362 13.205 8.0919 11.7386 8.61958 10.4646C9.14728 9.19054 10.3905 8.35986 11.7694 8.35986C13.1484 8.35986 14.3916 9.19054 14.9193 10.4646C15.447 11.7386 15.1553 13.205 14.1802 14.1801C12.8487 15.5114 10.6901 15.5114 9.35873 14.1801Z" stroke="#4D8A4A" stroke-width="2.7" stroke-linecap="round" stroke-linejoin="round"/>
<path fill-rule="evenodd" clip-rule="evenodd" d="M23.8198 28.6415C22.8448 27.6664 22.5531 26.2001 23.0808 24.926C23.6084 23.652 24.8516 22.8213 26.2306 22.8213C27.6097 22.8213 28.8527 23.652 29.3805 24.926C29.9082 26.2001 29.6165 27.6664 28.6413 28.6415C27.3099 29.9729 25.1514 29.9729 23.8198 28.6415Z" stroke="#4D8A4A" stroke-width="2.7" stroke-linecap="round"/>
<path d="M28.6415 9.35889L9.35718 28.6431" stroke="#4D8A4A" stroke-width="2.7" stroke-linecap="round"/>
</svg>
