<svg width="30" height="30" viewBox="0 0 30 30" fill="none" xmlns="http://www.w3.org/2000/svg">
<path d="M29.7863 15.0403L15.7125 0.299043C15.5353 0.114355 15.2916 0.0112305 15.0366 0.0112305C14.7816 0.0112305 14.5369 0.115293 14.3597 0.299043L0.21376 15.0403C-0.145302 15.4134 -0.132177 16.0069 0.240948 16.3659C0.61501 16.724 1.20751 16.7137 1.56657 16.3387L2.82657 15.0253V29.0531C2.82657 29.5706 3.24657 29.9906 3.76407 29.9906H10.3134C10.83 29.9906 11.2491 29.5734 11.2509 29.0559L11.28 19.6912H18.7509V29.0531C18.7509 29.5706 19.1709 29.9906 19.6884 29.9906H26.235C26.7525 29.9906 27.1725 29.5706 27.1725 29.0531V15.0206L28.4316 16.3397C28.6163 16.5309 28.8619 16.6284 29.1084 16.6284C29.3419 16.6284 29.5763 16.5422 29.7572 16.3669C30.1303 16.0087 30.1425 15.4153 29.7844 15.0422L29.7863 15.0403ZM25.2984 13.3247V28.1147H20.6269V18.7528C20.6269 18.2353 20.2069 17.8153 19.6894 17.8153H10.3472C9.83064 17.8153 9.41157 18.2325 9.4097 18.75L9.38064 28.1147H4.70345V13.3237C4.70345 13.2469 4.69126 13.1719 4.67345 13.0997L15.0375 2.29967L25.3331 13.0875C25.3134 13.1634 25.2994 13.2422 25.2994 13.3237L25.2984 13.3247Z" fill="#4D8A4A"/>
</svg>
