<svg width="30" height="30" viewBox="0 0 30 30" fill="none" xmlns="http://www.w3.org/2000/svg">
<g clip-path="url(#clip0_43_413)">
<path d="M29.9897 8.51043C30.0038 7.81762 29.8172 6.20043 27.7088 5.63793L6.54376 1.40137C4.9922 1.40137 3.73126 2.6623 3.73126 4.21387V7.98449L2.79376 7.98262C1.24783 7.98918 -0.00842285 9.24637 -0.00842285 10.7942V25.7886C-0.00842285 27.3392 1.25251 28.6011 2.80408 28.6011H27.1922C28.7428 28.6011 30.0047 27.3392 30.0047 25.7886L29.9897 8.51043ZM5.6072 4.21293C5.6072 3.72355 5.98408 3.32043 6.46314 3.27918L27.1472 7.46512C27.1547 7.46887 26.9935 7.99012 26.2425 7.98074H5.6072V4.21293ZM28.1325 25.7876C28.1325 26.3051 27.7125 26.7251 27.195 26.7251H2.80595C2.28845 26.7251 1.86845 26.3051 1.86845 25.7876V10.7923C1.86845 10.2748 2.28845 9.8548 2.80595 9.8548H26.2453C27.166 9.8548 28.1316 9.54074 28.1316 8.92105L28.1325 25.7876ZM5.62033 16.4211C4.58533 16.4211 3.74533 17.2601 3.74533 18.2961C3.74533 19.332 4.58533 20.1711 5.62033 20.1711C6.65533 20.1711 7.49533 19.332 7.49533 18.2961C7.49533 17.2601 6.65533 16.4211 5.62033 16.4211Z" fill="#4D8A4A"/>
</g>
<defs>
<clipPath id="clip0_43_413">
<rect width="30" height="30" fill="white"/>
</clipPath>
</defs>
</svg>
